<svg width="17" height="19" viewBox="0 0 17 19" fill="none" xmlns="http://www.w3.org/2000/svg">
<path d="M11.4833 7.39959C12.5616 8.47916 13.4411 10.2447 12.938 11.2918C11.5888 14.0984 1.52476 19.0173 0.668011 18.1666C-0.185706 17.3167 4.75902 7.29155 7.57667 5.94756C8.62996 5.44895 10.4027 6.33286 11.4863 7.39808L11.4825 7.40865V7.39959H11.4833ZM16.8165 6.21651C16.6412 5.57058 16.1935 4.91936 15.5265 4.84155C14.3047 4.70103 12.3765 6.85338 12.513 7.36408C12.6504 7.88536 15.3709 8.7806 16.3832 8.05534C16.9076 7.68214 16.9759 6.8768 16.8052 6.23162L16.8165 6.21651ZM13.0291 0.252033C13.9382 0.496807 14.8556 1.11932 14.9649 2.05158C15.163 3.7582 12.1329 6.44769 11.4135 6.25504C10.6941 6.06542 9.42676 2.26311 10.4505 0.844326C10.9779 0.110004 12.1207 0.00876981 13.0298 0.249011V0.252033H13.0291Z" fill="white"/>
</svg>
