<svg width="273" height="239" viewBox="0 0 273 239" fill="none" xmlns="http://www.w3.org/2000/svg">
<path d="M270.992 231.269C270.992 231.269 247.897 237.302 219.406 237.302C190.915 237.302 167.818 231.269 167.818 231.269C167.818 231.269 190.915 225.237 219.406 225.237C247.897 225.237 270.992 231.269 270.992 231.269Z" fill="#CBB59B"/>
<path d="M252.192 65.8286L263.461 66.5188C263.461 66.5188 268.492 41.3628 265.441 34.1516C264.983 33.0617 264.338 32.3841 263.461 32.2617C260.017 31.7846 257.127 40.7374 255.14 49.5163C253.27 57.7532 252.192 65.8286 252.192 65.8286Z" fill="#FAB663"/>
<path d="M258.526 42.387C260.4 41.0729 262.576 40.1917 264.837 39.8319C263.057 41.5803 261.018 42.5094 258.526 42.387Z" fill="#F7923D"/>
<path d="M257.852 48.7973C259.726 47.4832 261.902 46.602 264.163 46.2422C262.383 47.9898 260.343 48.919 257.852 48.7973Z" fill="#F7923D"/>
<path d="M257.12 55.4974C258.995 54.1826 261.172 53.3021 263.433 52.9415C261.652 54.6899 259.612 55.6191 257.12 55.4974Z" fill="#F7923D"/>
<path d="M255.141 49.5163C255.43 48.5488 255.702 47.5747 255.979 46.6072C256.811 43.7431 257.753 40.8466 259.488 38.4212C260.945 36.3963 263.048 34.7261 265.441 34.1516C264.983 33.0617 264.338 32.3841 263.461 32.2616C260.017 31.7845 257.127 40.7374 255.141 49.5163Z" fill="#F7923D"/>
<path d="M247.04 101.347L251.828 58.3541L266.726 59.604L262.186 101.347H247.04Z" fill="#C07E53"/>
<path d="M271.132 91.5051C271.132 94.078 264.453 95.0499 259.886 94.9503C255.499 95.0447 249.178 94.1524 248.679 91.809C248.649 91.7094 248.639 91.6098 248.639 91.5051C248.639 89.3313 251.132 77.0681 252.303 71.4247C252.668 69.6948 252.902 68.5827 252.902 68.5827H266.866C266.866 68.5827 267.1 69.6948 267.464 71.4247C268.635 77.0681 271.132 89.3313 271.132 91.5051Z" fill="#F04242"/>
<path d="M267.464 71.4247C267.1 69.6948 266.866 68.5827 266.866 68.5827H264.383H252.902C252.902 68.5827 252.668 69.6948 252.303 71.4247H265.027C266.428 77.6883 268.458 87.338 268.057 88.8379C267.494 90.9867 257.723 94.7453 248.679 91.809C249.178 94.1524 255.499 95.0447 259.886 94.9503C264.453 95.0499 271.132 94.078 271.132 91.5051C271.132 89.3313 268.636 77.0681 267.464 71.4247Z" fill="#EF2D2E"/>
<path d="M268.058 69.7376H251.71V66.0063H268.058V69.7376Z" fill="#F04242"/>
<path d="M264.856 83.5087H252.417V77.9413H264.856V83.5087Z" fill="white"/>
<path d="M180.972 71.2714L192.211 76.4812L197.293 64.8832L208.671 69.4219C208.671 69.4219 200.964 90.7419 196.833 91.4786C193.865 92.0081 179.059 80.8695 179.059 80.8695L180.972 71.2714Z" fill="#F68672"/>
<path d="M166.385 74.1745C166.573 74.4511 166.806 74.6797 167.07 74.878L167.078 74.8825C167.692 75.3603 168.475 75.6567 169.224 75.9237C170.062 76.2231 170.902 76.563 171.734 76.9103C172.437 77.1994 173.131 77.4899 173.827 77.7613C174.235 77.928 174.637 78.0762 175.046 78.2222L177.335 79.8489C177.335 79.8489 177.965 80.2279 179.059 80.8695L180.68 78.7959L180.672 78.7915L182.613 76.3086L183.688 74.9304L181.663 73.5485L179.837 72.3059C179.829 69.2973 179.433 66.1677 178.259 63.398C178.068 62.9416 177.841 62.4969 177.628 62.0545L177.625 62.0419C177.301 61.3996 176.998 60.7566 176.789 60.0716C176.405 58.79 176.42 57.4309 176.268 56.0969C176.243 55.8897 176.21 55.6788 176.171 55.4701C176.114 55.1184 176.011 54.7489 175.74 54.5255L175.698 54.499C175.344 54.2475 174.825 54.3242 174.47 54.583L174.322 54.7106C174.044 54.979 173.864 55.344 173.709 55.7017L173.66 55.8447C172.889 57.7849 172.787 59.9765 173.358 61.977C173.432 62.2351 173.52 62.5161 173.438 62.7639C173.36 62.9888 173.157 63.1532 172.96 63.2904C172.151 63.8331 171.187 64.0964 170.205 64.1708C169.72 64.2092 169.22 64.1989 168.725 64.1605L168.711 64.1583C168.105 64.1074 167.463 64.0285 166.931 64.2962C166.504 64.5182 166.24 64.9164 166.071 65.3794L166.041 65.4554C165.914 65.8175 165.85 66.2135 165.805 66.5829C165.78 66.7783 165.761 66.9723 165.751 67.1765C165.604 68.7126 165.597 70.2641 165.733 71.8045C165.8 72.6348 165.915 73.491 166.385 74.1745Z" fill="#F36269"/>
<path d="M175.737 54.524C176.013 54.7467 176.111 55.1177 176.174 55.4709C176.21 55.6788 176.241 55.8919 176.268 56.0999C176.419 57.4302 176.407 58.7877 176.789 60.0686C176.995 60.7566 177.302 61.4004 177.627 62.0434V62.0523C177.843 62.4962 178.068 62.9401 178.262 63.3973C179.433 66.1685 179.829 69.2958 179.836 72.3045L183.69 74.9319L182.615 76.3093L180.678 78.7988L179.059 80.8695L176.371 76.3337C176.799 73.4607 177.764 67.8122 177.242 64.232C177.148 63.5942 177.01 63.0286 176.811 62.5485C176.577 61.9962 176.32 61.4387 176.077 60.8776C175.604 59.7862 175.204 58.6764 175.234 57.5002L175.238 57.3144C175.244 56.6677 175.182 55.8897 174.684 55.6803C174.621 55.653 174.558 55.6353 174.486 55.6257C174.201 55.5933 173.938 55.7555 173.658 55.8455L173.707 55.7054C173.862 55.344 174.044 54.982 174.325 54.7113L174.47 54.5852C174.824 54.3235 175.344 54.2475 175.696 54.5019L175.737 54.524Z" fill="#F68672"/>
<path d="M172.138 70.239C172.107 71.8539 172.54 73.4585 173.25 74.909C172.214 73.7137 171.394 72.2787 171.186 70.7109C170.98 69.1425 171.463 67.4346 172.663 66.4037C172.88 66.2172 173.154 65.9863 173.411 65.92C173.422 66.4981 172.739 67.2975 172.543 67.8763C172.287 68.6366 172.154 69.4374 172.138 70.239Z" fill="#F14568"/>
<path d="M181.704 72.9512C181.646 75.4082 181.582 77.633 181.536 79.11C181.504 80.135 180.666 80.9477 179.64 80.9477H169.689C168.663 80.9477 167.825 80.135 167.793 79.11C167.747 77.633 167.683 75.4082 167.625 72.9512C167.554 69.958 167.502 66.6309 167.516 63.9091C167.535 60.9875 167.625 58.7752 167.851 58.4146C168.612 57.234 171.205 56.0542 171.205 56.0542L171.818 52.6429H177.506L178.124 56.0542C178.124 56.0542 180.717 57.234 181.478 58.4146C181.704 58.7752 181.794 60.9875 181.807 63.9091C181.827 66.6309 181.775 69.958 181.704 72.9512Z" fill="#D1F0FC"/>
<path d="M177.658 53.4718H171.67C171.29 53.4718 170.981 53.1628 170.981 52.7816V52.3929C170.981 52.0124 171.29 51.7035 171.67 51.7035H177.658C178.038 51.7035 178.347 52.0124 178.347 52.3929V52.7816C178.347 53.1628 178.038 53.4718 177.658 53.4718Z" fill="#363950"/>
<path d="M181.704 72.9512H167.625C167.554 69.958 167.502 66.6308 167.516 63.9091H181.807C181.827 66.6308 181.775 69.958 181.704 72.9512Z" fill="white"/>
<path d="M166.261 74.7143C168.705 75.3942 171.646 74.3707 171.646 74.3707C171.823 73.8471 171.911 73.2358 171.927 72.581C171.941 72.306 171.936 72.0228 171.922 71.7323C171.891 71.0907 171.815 70.4197 171.697 69.7457C171.65 69.4507 171.596 69.1535 171.535 68.8593C171.371 68.0762 171.178 67.3063 170.973 66.594C170.891 66.2865 170.802 65.9922 170.717 65.7098C170.48 64.9459 170.253 64.2874 170.076 63.797C169.871 63.2284 169.734 62.8878 169.734 62.8878C167.409 62.9438 164.266 64.8618 164.266 64.8618C164.067 65.7275 164.028 66.6508 164.098 67.5666C164.366 71.1674 166.261 74.7143 166.261 74.7143Z" fill="#F68672"/>
<path d="M167.222 66.9509C167.222 66.9509 167.548 66.9671 168.029 66.9583C168.513 66.948 169.148 66.9266 169.827 66.8248C170.241 66.7636 170.628 66.6803 170.973 66.594C170.891 66.2865 170.802 65.9923 170.717 65.7098C170.394 65.6796 170.038 65.6826 169.667 65.7349C168.914 65.8492 168.281 66.1582 167.861 66.4362C167.442 66.7142 167.222 66.9509 167.222 66.9509Z" fill="#D03B58"/>
<path d="M168.133 69.9403C168.133 69.9403 168.444 69.9831 168.901 70.0045C169.361 70.0236 169.968 70.0332 170.62 69.9521C171.006 69.9042 171.371 69.8245 171.697 69.7456C171.65 69.4507 171.596 69.1535 171.535 68.8593C171.215 68.8209 170.857 68.8091 170.481 68.8578C169.773 68.9478 169.167 69.2228 168.761 69.4713C168.353 69.7243 168.133 69.9403 168.133 69.9403Z" fill="#D03B58"/>
<path d="M168.111 72.828C168.111 72.828 168.435 72.876 168.921 72.9003C169.409 72.9209 170.057 72.9254 170.753 72.8295C171.177 72.7705 171.576 72.6791 171.927 72.581C171.941 72.306 171.936 72.0228 171.922 71.7323C171.533 71.6836 171.079 71.6718 170.601 71.7389C169.858 71.8421 169.224 72.1164 168.79 72.3649C168.353 72.6134 168.111 72.828 168.111 72.828Z" fill="#D03B58"/>
<path d="M164.098 67.5666C164.484 66.886 164.933 66.2504 165.535 65.7592C166.084 65.3079 166.736 65.0019 167.386 64.7217C168.131 64.4002 168.915 64.0256 169.708 63.8383C169.811 63.8117 169.938 63.8044 170.076 63.797C169.871 63.2284 169.734 62.8878 169.734 62.8878C167.409 62.9438 164.266 64.8618 164.266 64.8618C164.067 65.7275 164.028 66.6508 164.098 67.5666Z" fill="#F9AA7F"/>
<path d="M221.027 223.737L219.322 215.612L220.116 200.043L208.148 200.504L207.036 217.713L210.596 224.138L219.851 225.953L221.027 223.737Z" fill="#F36269"/>
<path d="M187.507 228.279L221.538 227.882C221.469 227.248 221.289 225.663 221.027 223.737C218.685 223.887 215.595 223.819 213.929 222.716C211.857 221.345 210.573 217.124 210.005 214.791L204.401 214.715C203.867 215.984 202.486 218.976 200.835 220.386C198.708 222.21 190.738 225.552 188.572 226.616C187.831 226.981 187.582 227.678 187.507 228.279Z" fill="#282A3E"/>
<path d="M187.541 231.269L187.507 228.276L221.537 227.883L221.576 231.269H187.541Z" fill="#DCDDDA"/>
<path d="M204.22 203.476C205.369 203.662 207.318 203.687 209.63 203.625C212.733 203.53 216.493 203.273 219.838 202.997C220.841 202.919 221.814 202.836 222.715 202.752C223.668 202.67 224.539 202.589 225.308 202.513C227.269 202.328 228.536 202.195 228.536 202.195L225.684 158.48C225.684 158.48 234.601 129.235 236.561 120.654C236.134 117.623 235.348 113.937 234.494 110.388L228.596 111.503L207.035 108.485C206.229 121.794 206.836 153.619 206.611 155.607C206.579 155.9 206.561 156.295 206.555 156.79L206.551 156.829L204.22 203.476Z" fill="#A3889F"/>
<path d="M209.82 166.416C211.506 168.15 213.778 167.396 215.006 164.924C215.663 163.6 216.073 162.087 215.978 160.55C215.884 159.012 215.245 157.455 214.118 156.481C212.992 155.509 211.365 155.221 210.158 155.946C208.73 156.804 208.197 158.761 208.108 160.574C208.035 162.054 208.188 163.598 208.829 164.94C209.122 165.552 209.457 166.042 209.82 166.416Z" fill="#B99EB2"/>
<path d="M245.751 222.714L243.323 214.776L242.716 199.198L230.84 200.73L231.276 217.97L235.398 224.049L244.778 225.028L245.751 222.714Z" fill="#F68672"/>
<path d="M212.775 230.247L246.632 226.797C246.507 226.172 246.185 224.609 245.751 222.714C243.432 223.073 240.347 223.283 238.59 222.334C236.404 221.155 234.747 217.068 233.97 214.794L228.383 215.221C227.964 216.533 226.858 219.637 225.341 221.189C223.384 223.197 215.747 227.242 213.685 228.495C212.98 228.924 212.794 229.641 212.775 230.247Z" fill="#363950"/>
<path d="M213.076 233.222L212.773 230.244L246.631 226.797L246.948 229.915L213.076 233.222Z" fill="white"/>
<path d="M224.081 203.422C225.241 203.494 227.184 203.33 229.479 203.044C232.559 202.648 236.274 202.026 239.577 201.427C240.568 201.252 241.528 201.075 242.418 200.904C243.358 200.73 244.216 200.564 244.975 200.414C246.909 200.039 248.156 199.783 248.156 199.783L241.07 156.553C241.07 156.553 247.103 126.579 248.22 117.849C247.501 114.874 246.361 111.282 245.166 107.832L239.403 109.515L219.405 109.236C219.896 122.56 221.84 153.545 221.809 155.546C221.806 155.841 221.825 156.236 221.868 156.73V156.768L224.081 203.422Z" fill="#B99EB2"/>
<path d="M236.325 157.902L244.975 200.414C246.909 200.039 248.156 199.783 248.156 199.783L241.07 156.553C241.07 156.553 247.103 126.579 248.22 117.849C247.501 114.874 246.361 111.282 245.166 107.832L239.403 109.515C240.236 114.005 241.778 122.549 241.613 124.046C241.429 125.668 238.174 146.248 236.866 154.509C236.53 156.604 236.325 157.902 236.325 157.902Z" fill="#A3889F"/>
<path d="M226.053 165.992C227.898 167.554 230.087 166.583 231.068 164.004C231.594 162.622 231.855 161.077 231.612 159.556C231.369 158.035 230.581 156.545 229.366 155.687C228.149 154.829 226.502 154.7 225.373 155.539C224.034 156.532 223.693 158.533 223.781 160.345C223.852 161.825 224.154 163.347 224.922 164.62C225.273 165.201 225.654 165.655 226.053 165.992Z" fill="#D0B6C7"/>
<path d="M202.353 43.4039C202.701 46.4575 205.312 48.7332 207.935 50.3363C218.934 57.0858 233.589 57.3808 244.848 51.0789C247.718 49.4699 250.448 47.383 252.004 44.4828C252.175 44.1642 252.328 43.8346 252.458 43.4983C253.566 40.7574 253.471 37.4626 251.65 35.1693C250.483 33.6959 248.767 32.7874 247.312 31.6031C245.856 30.424 244.553 28.7088 244.783 26.8461C245.066 24.4879 247.654 22.8899 247.89 20.5265C248.066 18.7405 246.823 17.1197 245.443 15.9701C242.23 13.3051 241.129 9.95132 238.67 6.82691C235.887 3.29029 231.101 0.950493 226.739 0.248478C223.125 -0.34145 219.295 0.0951157 216.064 1.81623C212.827 3.53809 210.263 6.60276 209.479 10.1814C208.907 12.7926 209.249 15.6574 208.006 18.0215C207.245 19.4654 205.942 20.6032 205.352 22.1238C205.01 23.002 204.928 23.9157 204.987 24.8411C205.129 27.0873 206.06 29.4337 205.9 31.7204C205.619 35.8293 201.881 39.3128 202.353 43.4039Z" fill="#FABF75"/>
<path d="M205.914 42.6517C205.914 42.6517 203.49 43.4754 202.311 46.001C201.132 48.5274 191.138 66.5379 191.138 66.5379L207.94 72.4313L205.914 42.6517Z" fill="#88C036"/>
<path d="M190.258 68.0386L192.126 63.463L208.599 70.0525L207.248 74.4415L190.258 68.0386Z" fill="#61AE32"/>
<path d="M249.591 114.633C249.591 114.633 218.848 117.464 205.914 114.821L207.94 79.0245L205.914 42.6517L211.571 41.0066L219.415 38.7206L223.316 39.2995L229.577 37.4508C229.577 37.4508 232.343 38.2708 235.806 39.6018C239.658 41.0803 244.366 43.1878 247.04 45.4863L249.591 114.633Z" fill="#88C036"/>
<path d="M235.805 39.6003C233.387 42.0058 227.802 46.9848 222.687 47.6492C217.47 48.3195 213.239 43.3346 211.569 41.0058L214.523 40.1482L219.417 38.7228L223.313 39.2973L229.575 37.4523C229.575 37.4523 230.788 37.8136 232.606 38.4389C233.542 38.7619 234.631 39.149 235.805 39.6003Z" fill="#F68672"/>
<path d="M235.805 39.6003C233.387 42.0058 227.802 46.9848 222.687 47.6492C217.47 48.3195 213.239 43.3346 211.569 41.0058L214.523 40.1482C215.929 42.154 219.211 46.3137 222.236 46.1397C225.377 45.959 230.555 40.677 232.606 38.4389C233.542 38.7619 234.631 39.149 235.805 39.6003Z" fill="#61AE32"/>
<path d="M231.529 38.0739C231.529 38.0739 223.346 41.8561 222.198 41.4299C221.05 41.0096 219.416 38.7236 219.416 38.7236C219.655 38.4294 221.321 37.279 221.236 36.3853C221.042 34.3235 220.288 31.4498 220.288 31.4498L227.202 29.0687C227.202 29.0687 227.488 31.0472 227.888 33.1414C228.291 35.2622 231.091 37.7495 231.529 38.0739Z" fill="#F68672"/>
<path d="M227.887 33.1384C225.986 34.5572 223.651 36.237 222.888 36.4973C222.265 36.7075 221.684 36.5814 221.239 36.3853C221.041 34.322 220.286 31.452 220.286 31.452L227.201 29.0701C227.201 29.0701 227.49 31.0508 227.887 33.1384Z" fill="#F36269"/>
<path d="M231.013 9.67992C227.219 5.33879 220.861 4.03581 215.868 6.91834C214.72 7.58054 213.803 8.33341 213.391 9.16226C211.741 12.4754 209.39 24.6685 211.918 30.5287C214.445 36.3897 218.423 35.5866 219.84 35.1737C221.257 34.7615 227.914 31.9851 229.453 29.8142C230.993 27.6425 234.292 16.4368 233.557 13.5167C233.311 12.5418 232.279 11.1297 231.013 9.67992Z" fill="#F9AA7F"/>
<path d="M231.467 8.80167C227.673 4.4598 221.315 3.15606 216.322 6.03934C215.174 6.70227 214.257 7.4544 213.845 8.28325C212.196 11.5972 209.845 23.7895 212.372 29.6497C214.9 35.5106 218.877 34.7076 220.294 34.2947C221.711 33.8824 228.368 31.1061 229.908 28.9352C231.447 26.7635 234.747 15.5578 234.011 12.6384C233.766 11.6628 232.733 10.2507 231.467 8.80167Z" fill="#F68672"/>
<path d="M230.1 23.7511C230.456 23.5823 232.254 21.2395 233.507 22.6731C234.759 24.1058 235.087 26.4678 233.896 27.7877C232.807 28.9919 231.293 30.2898 229.453 29.8141L230.1 23.7511Z" fill="#F68672"/>
<path d="M233.46 24.4753C233.532 24.7909 233.48 25.1176 233.378 25.4266C232.947 26.7407 231.695 27.7303 230.497 28.6483C230.863 28.0142 231.003 27.2937 230.94 26.5887C230.918 26.3432 230.872 26.0991 230.873 25.8543C230.877 24.8647 233.037 22.6104 233.46 24.4753Z" fill="#F36269"/>
<path d="M229.896 29.0163L229.964 28.9765C230.007 28.9492 230.077 28.9138 230.157 28.8577C230.317 28.7471 230.539 28.5694 230.75 28.3039C230.958 28.0385 231.15 27.6845 231.244 27.2627C231.33 26.8424 231.32 26.3506 231.114 25.8749L231.03 25.7002L231.006 25.6581L231.003 25.653L231.004 25.6537H231.003L231.006 25.6471L231.026 25.6087L231.067 25.5342L231.152 25.389C231.267 25.1972 231.39 25.0173 231.517 24.8499C231.643 24.6833 231.774 24.5292 231.904 24.3898C232.034 24.2504 232.16 24.1199 232.283 24.0233C232.408 23.9267 232.543 23.864 232.67 23.8485C232.797 23.8345 232.915 23.867 232.996 23.9105C233.077 23.9547 233.12 24.0108 233.139 24.0528L233.159 24.1191L233.157 24.0484C233.149 24.0026 233.117 23.9326 233.036 23.867C232.957 23.8043 232.831 23.7438 232.663 23.7372C232.497 23.7327 232.316 23.7903 232.154 23.8847C231.989 23.9798 231.843 24.0992 231.687 24.2305C231.533 24.3632 231.376 24.5122 231.225 24.6796C231.075 24.8462 230.929 25.0299 230.796 25.2297L230.699 25.3823L230.652 25.4605L230.59 25.5711L230.548 25.6485L230.587 25.7274L230.646 25.841L230.719 25.9922C230.898 26.4051 230.933 26.835 230.893 27.22C230.846 27.6049 230.719 27.9463 230.566 28.2162C230.413 28.4868 230.24 28.6867 230.11 28.8187L229.953 28.9647L229.896 29.0163Z" fill="#D03B58"/>
<path d="M218.711 24.0897C219.016 24.041 219.33 23.9415 219.626 24.0307C219.192 24.6597 218.502 25.1066 217.751 25.2452L217.575 25.2519C217.505 25.2356 217.447 25.1877 217.392 25.1405C217.051 24.8389 216.768 24.4687 216.568 24.0587C216.528 23.9754 216.49 23.8884 216.487 23.7962C216.474 23.4902 216.663 23.5934 216.824 23.6952C217.01 23.8139 217.211 23.909 217.42 23.9791C217.834 24.117 218.28 24.1583 218.711 24.0897Z" fill="#F36269"/>
<path d="M217.721 25.0652C217.574 24.8713 217.4 24.6973 217.247 24.5063C217.059 24.2703 216.889 24.0196 216.75 23.7519C217.828 23.2822 218.012 22.2874 218.185 21.1533C218.263 20.6415 218.219 20.1128 218.059 19.6209C217.974 19.3621 217.858 19.1143 217.715 18.8835C217.641 18.767 217.56 18.6542 217.473 18.5465C217.389 18.4418 217.293 18.3747 217.18 18.3002C217.226 18.3784 217.25 18.4639 217.29 18.5428C217.393 18.75 217.505 18.9455 217.586 19.163C217.667 19.3805 217.729 19.6055 217.773 19.8341C217.859 20.2905 217.871 20.7624 217.798 21.2218C217.727 21.6724 217.573 22.1119 217.327 22.4976C217.049 22.9371 216.625 23.3463 216.137 23.5395C216.133 23.541 216.639 24.423 216.691 24.4967C216.826 24.6877 216.978 24.8661 217.147 25.0269C217.314 25.184 217.504 25.3691 217.738 25.4052C217.812 25.417 217.889 25.4148 217.957 25.3845L217.863 25.2725L217.828 25.2194L217.721 25.0652Z" fill="#F14568"/>
<path d="M223.697 26.8594C221.342 28.1594 218.413 28.3703 215.896 27.4205C217.124 28.2818 218.49 28.8312 219.988 28.7398C221.485 28.6476 222.582 27.8637 223.697 26.8594Z" fill="#F14568"/>
<path d="M221.375 29.458C220.392 30.0568 219.112 30.1372 218.062 29.6667C218.461 30.174 219.021 30.4934 219.666 30.4919C220.312 30.4911 220.978 29.9668 221.375 29.458Z" fill="#F14568"/>
<path d="M212.321 15.2149C212.321 15.2149 214.079 13.8669 215.177 13.9753C216.272 14.083 216.599 15.0896 216.166 15.2879C215.734 15.487 212.321 15.2149 212.321 15.2149Z" fill="#FCD18A"/>
<path d="M227.816 16.9685C227.816 16.9685 225.295 14.7371 223.594 14.4082C221.893 14.0793 221.253 15.0726 221.891 15.4723C222.53 15.872 227.816 16.9685 227.816 16.9685Z" fill="#FCD18A"/>
<path d="M223.332 24.7268C223.399 25.2489 224.572 25.5276 225.949 25.3492C227.327 25.1707 228.389 24.6029 228.322 24.0816C228.254 23.5595 227.083 23.2815 225.705 23.4592C224.327 23.6377 223.264 24.2055 223.332 24.7268Z" fill="#F36269"/>
<path d="M209.915 22.0161C209.744 22.3759 210.485 23.0853 211.569 23.6C212.654 24.1147 213.672 24.2408 213.842 23.881C214.013 23.5204 213.272 22.8117 212.188 22.297C211.103 21.7816 210.086 21.6562 209.915 22.0161Z" fill="#F36269"/>
<path d="M226.122 18.4772C225.873 18.8821 225.242 19.118 224.809 19.2375C224.649 18.9661 224.425 18.7818 224.157 18.7316C223.471 18.6048 222.748 19.3953 222.545 20.4977C222.34 21.5994 222.732 22.5964 223.418 22.7232C224.104 22.8501 224.826 22.0596 225.031 20.9571C225.094 20.6157 225.1 20.2854 225.057 19.9867C225.666 19.6232 226.122 18.4772 226.122 18.4772Z" fill="#121414"/>
<path d="M223.789 20.8738C223.789 20.8738 224.442 21.2381 225.137 21.1068C225.832 20.9756 226.306 20.3974 226.306 20.3974C226.306 20.3974 225.654 20.0331 224.958 20.1644C224.264 20.2957 223.789 20.8738 223.789 20.8738Z" fill="white"/>
<path d="M212.761 17.4877C212.832 17.8637 213.239 18.2236 213.531 18.4382C213.73 18.2803 213.951 18.2051 214.168 18.2457C214.722 18.3475 215.038 19.1512 214.873 20.0406C214.71 20.9291 214.128 21.567 213.574 21.4652C213.021 21.3635 212.705 20.5597 212.869 19.6704C212.919 19.3953 213.01 19.1439 213.128 18.9315C212.774 18.4817 212.761 17.4877 212.761 17.4877Z" fill="#121414"/>
<path d="M213.828 19.9653C213.828 19.9653 213.231 20.0516 212.745 19.7522C212.259 19.4528 212.068 18.8813 212.068 18.8813C212.068 18.8813 212.665 18.7943 213.151 19.0937C213.637 19.3931 213.828 19.9653 213.828 19.9653Z" fill="white"/>
<path d="M234.637 25.0712C234.317 24.3021 233.856 23.4548 233.067 23.1864C232.278 22.9172 231.52 23.1547 230.796 23.5683C231.247 21.2138 232.107 18.5613 232.888 16.2938C228.409 15.2703 224.411 12.3007 222.138 8.30913C222.131 9.79722 222.746 11.278 223.804 12.3243C221.938 12.3015 220.116 11.275 219.128 9.69325C217.263 11.7455 214.644 13.21 211.871 13.2173C212.059 9.21098 214.336 5.30638 217.897 3.46137C221.458 1.61564 225.909 1.69603 229.482 3.51744C233.056 5.3381 235.703 8.81204 236.684 12.7011C237.663 16.5902 236.592 21.5692 234.637 25.0712Z" fill="#FABF75"/>
<path d="M204.987 24.8411C206.401 23.4326 207.428 21.5758 208.217 19.719C209.384 16.9419 210.192 13.9835 211.86 11.4778C213.652 8.784 216.322 6.80404 218.934 4.88751C219.565 5.58879 220.201 6.29007 220.838 6.99208C221.197 6.15438 221.551 5.31814 221.91 4.48118C225.382 9.15562 230.641 12.4622 236.359 13.5646C235.445 15.4096 237.173 17.4434 238.829 18.6579C240.485 19.8776 242.472 21.4048 242.207 23.4444C241.982 25.2186 240.126 26.327 239.459 27.9832C238.451 30.4889 240.491 33.2358 242.826 34.5919C245.16 35.9531 247.925 36.6131 249.928 38.4227C251.367 39.7198 252.245 41.5766 252.458 43.4983C253.566 40.7573 253.471 37.4626 251.649 35.1692C251.538 35.0277 251.42 34.892 251.302 34.7622C250.158 33.5182 248.626 32.6753 247.311 31.6031C245.856 30.424 244.553 28.7088 244.783 26.8461C245.066 24.4879 247.653 22.8899 247.889 20.5265C248.066 18.7405 246.822 17.1197 245.443 15.9701C242.23 13.305 241.128 9.95129 238.67 6.82689C235.887 3.29027 231.101 0.95047 226.738 0.248455C223.125 -0.341473 219.294 0.0950928 216.064 1.81621C212.827 3.53806 210.262 6.60273 209.478 10.1814C209.391 10.5877 209.325 10.9947 209.273 11.4128C208.977 13.6708 209.054 16.0224 208.005 18.0215C207.245 19.4654 205.942 20.6032 205.352 22.1237C205.01 23.002 204.928 23.9156 204.987 24.8411Z" fill="#FCD18A"/>
<path d="M209.273 11.4128C209.714 11.2071 210.133 10.9594 210.516 10.6762C212.29 9.36729 213.546 7.48687 214.955 5.79009C216.358 4.08594 218.079 2.47028 220.242 2.02267C220.319 2.55951 220.396 3.09561 220.478 3.63245C221.87 2.60671 223.573 1.99908 225.306 1.91059C228.596 6.59093 233.659 9.9867 239.235 11.2543C238.658 12.8515 239.807 14.5372 241.057 15.6869C242.301 16.8365 243.798 17.933 244.193 19.5775C244.671 21.5699 243.351 23.527 243.138 25.5608C242.902 27.8652 244.134 30.1232 245.862 31.6614C247.423 33.0588 249.357 33.9665 251.302 34.7622C250.158 33.5182 248.626 32.6753 247.311 31.6031C245.856 30.424 244.553 28.7088 244.783 26.8461C245.066 24.4879 247.653 22.8899 247.889 20.5265C248.066 18.7405 246.822 17.1197 245.443 15.9701C242.23 13.3051 241.128 9.9513 238.67 6.82689C235.887 3.29028 231.101 0.950474 226.738 0.248463C223.125 -0.341465 219.294 0.0951004 216.064 1.81622C212.827 3.53807 210.262 6.60274 209.478 10.1814C209.391 10.5877 209.325 10.9947 209.273 11.4128Z" fill="#FDE498"/>
<path d="M253.629 90.4757C253.621 90.5436 253.613 90.6077 253.602 90.6756C253.505 91.2633 253.353 91.8503 253.146 92.4181C252.734 93.5448 252.107 94.5919 251.263 95.4112C251.043 95.6273 250.812 95.8271 250.56 96.0026C250.36 96.1545 250.148 96.2865 249.925 96.4104C248.729 97.066 247.382 97.2577 246.044 97.094C245.74 97.0579 245.437 97.0018 245.133 96.9259C244.045 96.6619 242.99 96.1744 242.063 95.5196C241.624 95.2077 241.212 94.864 240.841 94.4843L240.661 94.2926C238.443 91.9424 237.363 88.7332 236.624 85.5882C235.557 81.0361 234.087 74.8419 235.889 70.2781C236.345 69.127 237.2 68.2155 238.255 67.5725C238.667 67.3203 239.111 67.1087 239.57 66.9406C239.802 66.8528 240.037 66.7769 240.277 66.7171C240.557 66.6412 240.841 66.577 241.128 66.5328C241.384 66.4929 241.64 66.4657 241.896 66.4494C242.159 66.4332 242.428 66.4295 242.691 66.4413C243.067 66.4531 243.439 66.4929 243.802 66.5615C244.098 66.6168 244.385 66.6891 244.661 66.785C245.001 66.8926 245.32 67.029 245.628 67.1927C248.465 68.7236 249.868 71.9645 250.868 75.0255C251.799 77.8631 252.558 80.7522 253.154 83.6776C253.61 85.9156 253.965 88.2222 253.629 90.4757Z" fill="#20795A"/>
<path d="M242.063 95.5196C241.624 95.2077 241.212 94.8641 240.841 94.4843L240.661 94.2926C240.605 94.1562 240.549 94.0205 240.496 93.8804C238.822 89.5289 237.863 84.8412 237.076 80.253C236.352 76.0328 236.161 71.4166 238.254 67.5725C238.667 67.3203 239.111 67.1087 239.57 66.9406L239.534 67.001C238.115 69.1071 237.479 71.6047 237.372 74.1222C237.268 76.5999 237.643 79.0621 238.115 81.4874C238.546 83.7255 239.01 85.9598 239.566 88.1699C240.197 90.68 240.981 93.1732 242.063 95.5196Z" fill="#51C292"/>
<path d="M246.044 97.094C245.74 97.0579 245.437 97.0018 245.133 96.9259C244.693 95.7313 244.249 94.5403 243.81 93.345C242.962 91.0472 241.911 88.7332 241.412 86.3278C240.932 84.0057 241.004 81.6113 240.532 79.2855C240.065 76.9922 239.47 74.7343 239.51 72.376C239.542 70.4654 239.877 68.5835 240.277 66.7171C240.557 66.6412 240.841 66.577 241.128 66.5328C240.633 68.8387 240.201 71.1733 240.333 73.5389C240.461 75.8573 241.18 78.0828 241.54 80.3651C241.908 82.6865 241.816 85.0528 242.492 87.3226C243.17 89.6049 244.101 91.8304 244.924 94.0647C245.3 95.0757 245.672 96.083 246.044 97.094Z" fill="#51C292"/>
<path d="M251.263 95.4112C251.043 95.6273 250.812 95.8271 250.56 96.0026C250.288 94.3125 249.893 92.6415 249.417 90.9949C248.178 86.7113 246.412 82.6186 244.845 78.4545C243.39 74.586 242.147 70.5937 241.896 66.4494C242.159 66.4332 242.428 66.4295 242.691 66.4413C242.83 68.703 243.274 70.9329 243.894 73.1112C245.101 77.3793 246.919 81.4439 248.454 85.5963C249.636 88.793 250.675 92.0582 251.263 95.4112Z" fill="#51C292"/>
<path d="M253.629 90.4757C253.621 90.5436 253.613 90.6077 253.601 90.6756C253.505 91.2633 253.353 91.8503 253.146 92.4181C253.042 91.691 252.918 90.9676 252.774 90.2442C251.902 85.8124 250.384 81.5722 248.354 77.5438C246.572 74.0064 244.55 70.4853 243.802 66.5615C244.098 66.6168 244.385 66.6891 244.661 66.785C245.084 68.7553 245.828 70.6416 246.691 72.4638C247.634 74.4621 248.705 76.3964 249.661 78.3903C250.62 80.3887 251.451 82.4468 252.13 84.5573C252.754 86.4952 253.253 88.4737 253.629 90.4757Z" fill="#51C292"/>
<path d="M270.493 77.2481C270.493 77.2481 274.246 110.64 272.029 113.904C269.811 117.168 257.414 120.3 253.038 120.77C248.662 121.24 237.064 113.904 237.064 113.904L234.637 81.2301L270.493 77.2481Z" fill="#46689C"/>
<path d="M238.251 79.801C238.251 79.801 236.022 61.014 236.561 58.9588C237.099 56.9044 243.451 43.0743 243.451 43.0743C243.451 43.0743 246.752 43.9533 247.04 45.4863C247.04 45.4863 239.628 58.6285 239.628 60.3525C239.628 62.0766 241.758 79.523 241.758 79.523L238.251 79.801Z" fill="#46689C"/>
<path d="M247.04 45.4863C247.04 45.4863 255.24 50.3518 256.165 54.1281C256.974 57.4287 260.495 70.9049 260.495 70.9049L245.625 72.4313L244.401 55.6095L247.04 45.4863Z" fill="#88C036"/>
<path d="M244.401 70.9676L260.495 68.0386L262.119 74.1886L244.401 75.7998V70.9676Z" fill="#61AE32"/>
<path d="M266.426 168.275C265.065 174.408 253.211 179.464 247.948 179.774C242.693 180.077 231.593 175.175 231.703 171.648C231.812 168.127 231.703 141.42 231.703 141.42L231.838 141.407L260.492 138.505C260.492 138.505 263.601 148.585 265.381 157.285C266.322 161.909 266.896 166.147 266.426 168.275Z" fill="#D1F0FC"/>
<path d="M266.426 168.275C265.065 174.408 253.211 179.464 247.948 179.774C242.693 180.077 231.593 175.175 231.703 171.648C231.812 168.127 231.703 141.42 231.703 141.42L231.838 141.407C232.361 147.211 234.443 168.178 237.049 170.423C240.088 173.028 250.509 175.943 250.509 175.943C250.509 175.943 245.621 174.099 246.53 171.036C247.445 167.972 259.139 161.226 260.492 164.908C261.847 168.584 261.234 170.268 261.234 170.268C261.234 170.268 264.491 169.5 264.859 166.746C265.026 165.444 265.22 161.297 265.381 157.285C266.322 161.909 266.896 166.147 266.426 168.275Z" fill="#B5DEED"/>
<path d="M235.753 141.421C235.753 141.421 241.457 124.449 246.322 125.369C251.187 126.288 257.31 140.693 257.31 140.693L252.939 141.421C252.939 141.421 247.938 129.659 245.809 130.119C243.677 130.579 239.091 143.758 239.091 143.758L235.753 141.421Z" fill="#D1F0FC"/>
<path d="M237.671 135.035C238.869 135.411 240.515 126.892 240.515 126.892L242.891 126.485L242.537 130.109L244.602 134.997C244.602 134.997 245.633 135.029 246.898 134.993C247.056 134.99 247.218 134.983 247.38 134.977C248.136 134.947 248.937 134.888 249.627 134.782C249.694 134.774 249.762 134.762 249.827 134.754C250.17 134.692 251.234 134.324 251.355 134.184L250.61 130.116C250.61 130.116 254.315 125.781 254.486 124.931C254.552 124.593 251.77 117.923 251.439 117.19L247.702 116.933C247.702 116.933 241.765 121.887 241.443 122.184C240.278 123.261 239.102 124.502 238.411 125.655C238.117 126.142 237.912 126.615 237.833 127.051C237.285 130.058 236.474 134.661 237.671 135.035Z" fill="#F68672"/>
<path d="M249.627 134.782C249.694 134.774 249.762 134.762 249.827 134.754C249.774 134.589 249.702 134.375 249.618 134.117C249.429 133.53 249.185 132.733 248.94 131.867C248.7 130.997 248.537 130.199 248.482 129.586C248.47 129.432 248.459 129.291 248.449 129.167C248.451 129.042 248.449 128.934 248.452 128.845C248.449 128.665 248.448 128.56 248.448 128.56C248.448 128.56 248.401 128.654 248.325 128.828C248.286 128.915 248.24 129.024 248.19 129.15C248.154 129.279 248.114 129.425 248.072 129.593C247.915 130.252 247.882 131.212 248.146 132.166C248.414 133.115 248.872 133.859 249.251 134.345C249.392 134.525 249.52 134.669 249.627 134.782Z" fill="#D03B58"/>
<path d="M246.899 134.993C247.056 134.99 247.218 134.983 247.38 134.977L247.349 134.874C247.16 134.287 246.916 133.49 246.672 132.624C246.432 131.754 246.269 130.957 246.213 130.343C246.202 130.188 246.189 130.05 246.18 129.927C246.18 129.8 246.182 129.692 246.181 129.603C246.18 129.421 246.179 129.32 246.179 129.32C246.179 129.32 246.135 129.412 246.056 129.585C246.02 129.673 245.972 129.78 245.924 129.908C245.885 130.036 245.845 130.185 245.804 130.349C245.647 131.011 245.614 131.973 245.878 132.925C246.126 133.806 246.538 134.511 246.899 134.993Z" fill="#D03B58"/>
<path d="M247.702 116.933L249.827 97.3624L247.38 75.5292L258.915 74.4798C258.915 74.4798 260.086 97.7068 259.856 98.8556C259.627 100.005 253.633 123.296 253.633 123.296L247.702 116.933Z" fill="#F68672"/>
<path d="M191.281 27.439L181.509 18.461L178.347 25.1361L191.281 27.439Z" fill="white"/>
<path d="M195.474 26.4391L196.455 18.1602L191.901 18.7479L195.474 26.4391Z" fill="white"/>
<path d="M190.856 33.2416L182.006 33.2556L182.401 37.4493L190.856 33.2416Z" fill="white"/>
<path d="M103.245 232.969C103.245 232.969 80.1576 239 51.677 239C23.197 239 0.110107 232.969 0.110107 232.969C0.110107 232.969 23.197 226.939 51.677 226.939C80.1576 226.939 103.245 232.969 103.245 232.969Z" fill="#CBB59B"/>
<path d="M225.667 231.936C225.667 231.936 192.5 237.967 151.587 237.967C110.673 237.967 77.5056 231.936 77.5056 231.936C77.5056 231.936 110.673 225.906 151.587 225.906C192.5 225.906 225.667 231.936 225.667 231.936Z" fill="#CBB59B"/>
<path d="M90.3203 86.8896L80.7821 80.7268L77.1666 69.2985L70.1274 71.5959L70.9264 86.8896L86.7315 93.5058L90.3203 86.8896Z" fill="#F68672"/>
<path d="M97.9307 102.442C97.6028 102.38 97.3003 102.258 97.0127 102.096L97.0055 102.091C96.323 101.719 95.7381 101.119 95.1942 100.54C94.5845 99.8917 93.9378 99.26 93.2859 98.6347C92.7407 98.1071 92.1967 97.5866 91.6704 97.0569C91.3548 96.7499 91.0581 96.4408 90.7608 96.1253L88.3548 94.677C88.3548 94.677 87.7568 94.2521 86.7314 93.5058L87.9833 91.1922L87.9904 91.1974L89.4895 88.4264L90.3223 86.8902L92.3978 88.1934L94.2664 89.3704C97.027 88.1759 100.052 87.2871 103.059 87.2559C103.553 87.2481 104.051 87.2786 104.542 87.2969L104.555 87.2956C105.273 87.3346 105.983 87.3554 106.694 87.2735C108.022 87.1127 109.261 86.5558 110.544 86.1615C110.744 86.1017 110.95 86.0477 111.157 85.9995C111.502 85.9117 111.882 85.8583 112.195 86.0177L112.237 86.0457C112.608 86.2695 112.746 86.7764 112.65 87.2045C112.638 87.2702 112.612 87.3307 112.593 87.3906C112.457 87.7523 112.194 88.0633 111.929 88.3489L111.818 88.4504C110.349 89.9326 108.38 90.9014 106.32 91.1792C106.054 91.2137 105.761 91.2449 105.567 91.4199C105.391 91.5806 105.322 91.8324 105.276 92.0686C105.102 93.0263 105.246 94.0146 105.57 94.9444C105.729 95.4037 105.937 95.8572 106.171 96.2957L106.179 96.3074C106.467 96.8429 106.797 97.3992 106.764 97.9945C106.731 98.474 106.472 98.8748 106.116 99.2151L106.057 99.273C105.777 99.5345 105.44 99.7506 105.119 99.9392C104.95 100.041 104.78 100.136 104.596 100.226C103.248 100.974 101.829 101.602 100.363 102.093C99.5755 102.363 98.7453 102.6 97.9307 102.442Z" fill="#F36269"/>
<path d="M112.198 86.0197C111.884 85.8557 111.504 85.9136 111.155 85.9976C110.95 86.0483 110.744 86.1043 110.542 86.1635C109.262 86.5565 108.023 87.1101 106.697 87.2721C105.984 87.358 105.272 87.334 104.553 87.2936L104.545 87.2975C104.052 87.2767 103.555 87.2474 103.059 87.2526C100.052 87.2884 97.0276 88.1746 94.2683 89.3704L90.3203 86.8896L89.4875 88.4251L87.9813 91.1948L86.7314 93.5058L91.9618 94.1552C94.4232 92.6164 99.2125 89.4739 102.701 88.5214C103.323 88.3515 103.898 88.2533 104.416 88.2429C105.016 88.2364 105.629 88.2494 106.241 88.2474C107.43 88.2442 108.606 88.1681 109.672 87.671L109.84 87.5923C110.431 87.3281 111.168 87.0737 111.559 87.4459C111.609 87.4927 111.651 87.5435 111.688 87.6059C111.831 87.8545 111.788 88.1603 111.818 88.453L111.926 88.3509C112.196 88.0653 112.455 87.7536 112.591 87.388C112.613 87.3288 112.637 87.2689 112.648 87.2051C112.747 86.7764 112.608 86.2695 112.235 86.0477L112.198 86.0197Z" fill="#F68672"/>
<path d="M99.2379 95.5982C97.77 96.2716 96.1272 96.5163 94.5143 96.446C96.0237 96.9171 97.6666 97.096 99.1858 96.6588C100.705 96.2215 102.077 95.096 102.542 93.5846C102.626 93.3106 102.728 92.9684 102.686 92.7062C102.151 92.9261 101.693 93.8728 101.24 94.2827C100.646 94.8207 99.9659 95.2632 99.2379 95.5982Z" fill="#F14568"/>
<path d="M149.36 105.682C149.025 106.034 148.439 106.116 148.02 105.868C147.648 107.937 147.276 110.006 146.904 112.075C146.816 112.565 146.665 113.134 146.202 113.314C145.593 113.549 145.01 112.933 144.668 112.377C143.861 111.064 143.334 109.682 142.787 108.286H140.916C141.013 109.148 141.682 110.26 142.009 110.833C142.338 111.408 144.165 116.741 144.28 116.763C145.494 117.008 146.763 116.977 147.964 116.671C147.64 112.964 148.12 109.19 149.36 105.682Z" fill="#2AB57E"/>
<path d="M152.021 101.019C152.79 99.9399 152.455 98.2431 151.335 97.5365C150.215 96.8299 148.54 97.2593 147.897 98.4174C147.646 97.2756 146.507 96.3985 145.339 96.4493C144.171 96.4994 143.111 97.4714 142.96 98.6302C142.176 97.3374 140.493 96.6653 139.035 97.0615C137.575 97.4577 136.464 98.8878 136.442 100.4C135.646 100.201 134.765 100.211 134.046 100.607C133.327 101.002 132.821 101.837 132.971 102.644C133.12 103.451 134.04 104.073 134.806 103.777C134.095 104.333 133.878 105.429 134.324 106.213C134.77 106.996 135.822 107.371 136.663 107.045C135.571 108.561 136.434 111.052 138.23 111.567C140.065 112.094 141.89 110.485 141.972 108.678L142.004 108.734C142.013 109.599 142.554 110.411 143.281 110.889C144.044 111.39 144.976 111.571 145.888 111.61C148.439 111.717 152.527 109.998 151.553 106.796L151.552 106.727C153.158 106.574 154.939 106.126 155.144 104.172C155.32 102.489 153.705 100.859 152.021 101.019Z" fill="#2EAE7D"/>
<path d="M167.054 107.757C166.656 107.93 166.147 107.794 165.888 107.446C164.864 109.019 163.841 110.592 162.818 112.165C162.576 112.537 162.255 112.953 161.81 112.941C161.228 112.924 160.962 112.215 160.873 111.638C160.664 110.278 160.711 108.959 160.744 107.62L159.205 106.971C158.986 107.714 159.151 108.861 159.221 109.447C159.292 110.033 158.947 115.054 159.034 115.112C159.948 115.735 161.003 116.149 162.096 116.314C163.115 113.152 164.818 110.213 167.054 107.757Z" fill="#2AB57E"/>
<path d="M170.86 104.842C171.866 104.222 172.179 102.71 171.502 101.74C170.826 100.771 169.299 100.543 168.369 101.273C168.559 100.247 167.925 99.1299 166.947 98.7668C165.969 98.4031 164.759 98.8358 164.234 99.7369C164.036 98.4018 162.885 97.2652 161.548 97.085C160.21 96.9054 158.8 97.6972 158.257 98.9334C157.672 98.4936 156.943 98.1969 156.215 98.2724C155.486 98.3485 154.78 98.8605 154.624 99.5762C154.467 100.292 155.008 101.123 155.741 101.145C154.964 101.356 154.406 102.181 154.501 102.981C154.595 103.781 155.331 104.453 156.136 104.477C154.712 105.346 154.559 107.693 155.857 108.74C157.185 109.81 159.244 109.118 159.938 107.661L159.945 107.718C159.652 108.433 159.815 109.288 160.249 109.934C160.703 110.61 161.407 111.081 162.143 111.429C164.205 112.403 168.164 112.406 168.473 109.433L168.495 109.375C169.87 109.807 171.491 110.057 172.336 108.519C173.064 107.196 172.301 105.295 170.86 104.842Z" fill="#2EAE7D"/>
<path d="M198.717 103.468V142.691H171.39V103.468H198.717Z" fill="#5B9FDC"/>
<path d="M179.46 103.47H173.485V101.056H179.46V103.47Z" fill="#363950"/>
<path d="M198.717 122.055V128.224C198.654 128.25 198.589 128.27 198.525 128.296C196.043 129.205 193.702 130.784 192.413 133.098C191.505 134.717 191.002 136.78 189.351 137.63C187.436 138.617 185.193 137.378 183.201 136.547C179.487 134.981 175.207 134.883 171.39 136.147V115.53C173.466 116.485 175.973 116.627 178.172 115.917C181.776 114.757 184.535 111.74 186.224 108.362C187.005 106.796 187.591 105.158 188.068 103.468H191.523C191.201 107.504 191.937 111.624 193.697 115.266C194.922 117.819 196.643 120.128 198.717 122.055Z" fill="white"/>
<path d="M176.061 121.795L177.245 124.625L178.427 121.795H180.322V127.215H178.76V124.246L177.833 126.69H176.657L175.73 124.246V127.215H174.167V121.795H176.061Z" fill="#363950"/>
<path d="M182.893 121.795V127.215H181.099V121.795H182.893Z" fill="#363950"/>
<path d="M185.461 121.795V125.723H187.718V127.215H183.667V121.795H185.461Z" fill="#363950"/>
<path d="M191.634 127.215L190.505 125.351L189.979 125.939V127.215H188.185V121.795H189.979V123.674L191.595 121.795H193.659L191.726 123.975L193.775 127.215H191.634Z" fill="#363950"/>
<path d="M200.36 130.643C200.724 130.676 201.102 130.701 201.447 130.581C201.793 130.462 202.101 130.16 202.113 129.793C202.13 129.316 201.674 128.971 201.257 128.737C199.934 127.994 198.489 127.466 196.999 127.182C199.127 127.064 201.216 126.316 202.937 125.057C203.493 124.649 204.049 123.87 203.598 123.348C203.325 123.031 202.839 123.04 202.423 123.088C200.806 123.273 199.208 123.639 197.672 124.177C198.869 123.266 199.662 121.84 199.802 120.342C199.84 119.938 199.778 119.439 199.408 119.275C199.064 119.123 198.679 119.358 198.389 119.596C197.24 120.539 196.289 121.723 195.617 123.048C195.92 122.431 196.231 121.774 196.169 121.089C196.107 120.404 195.51 119.72 194.83 119.831C194.3 119.917 193.953 120.421 193.695 120.892C192.9 122.339 190.649 127.207 191.925 128.722C192.528 129.439 194.857 129.689 195.743 129.897C197.262 130.253 198.806 130.503 200.36 130.643Z" fill="#2EAE7D"/>
<path d="M189.792 124.133C188.369 124.277 187.039 124.874 185.781 125.58C185.596 125.682 185.407 125.797 185.224 125.908C185.088 125.982 184.962 126.061 184.831 126.138C181.753 127.988 178.611 130.049 175.701 132.352C175.533 132.482 175.361 132.618 175.196 132.758C173.445 134.164 171.786 135.666 170.275 137.26C168.119 139.537 169.236 140.681 171.946 140.153C172.91 139.967 173.87 139.757 174.829 139.518C175.036 139.475 175.249 139.419 175.46 139.37C177.598 138.834 179.719 138.192 181.8 137.449C182 137.375 182.202 137.3 182.401 137.225C183.461 136.834 184.511 136.417 185.544 135.972C185.742 135.888 185.933 135.803 186.127 135.711C187.286 135.202 188.427 134.655 189.552 134.081C190.39 133.65 191.237 133.181 191.997 132.625C192.191 132.484 192.379 132.341 192.55 132.19C192.955 131.852 193.327 131.479 193.653 131.065C194.701 129.713 195.178 127.784 194.392 126.264C193.57 124.665 191.578 123.958 189.792 124.133Z" fill="#F68640"/>
<path d="M172.878 137.408C173.164 138.108 173.453 138.816 173.745 139.518C173.953 139.475 174.166 139.419 174.376 139.37C174.077 138.636 173.778 137.903 173.479 137.169C173.315 136.789 172.721 137.024 172.878 137.408Z" fill="#F46F2E"/>
<path d="M174.618 132.352C174.449 132.482 174.277 132.618 174.112 132.758C174.849 134.166 175.521 135.609 176.125 137.078C176.281 137.462 176.882 137.223 176.726 136.839C176.098 135.311 175.394 133.812 174.618 132.352Z" fill="#F46F2E"/>
<path d="M178.557 133.143C179.401 134.513 180.122 135.956 180.717 137.449C180.917 137.375 181.118 137.3 181.318 137.225C180.707 135.674 179.951 134.182 179.073 132.762C178.855 132.408 178.339 132.789 178.557 133.143Z" fill="#F46F2E"/>
<path d="M181.81 129.935C182.911 131.845 183.799 133.873 184.46 135.972C184.658 135.888 184.849 135.803 185.043 135.711C184.365 133.57 183.457 131.505 182.328 129.548C182.124 129.193 181.606 129.58 181.81 129.935Z" fill="#F46F2E"/>
<path d="M184.697 125.58C184.513 125.682 184.323 125.797 184.141 125.908C185.327 127.784 186.203 129.841 186.716 132.009C186.812 132.402 187.451 132.335 187.354 131.927C186.819 129.679 185.919 127.534 184.697 125.58Z" fill="#F46F2E"/>
<path d="M189.032 127.076C188.883 127.194 188.882 127.376 188.962 127.53C189.85 129.123 190.514 130.843 190.913 132.625C191.107 132.484 191.296 132.341 191.466 132.19C191.036 130.43 190.368 128.736 189.486 127.146C189.397 126.995 189.157 126.983 189.032 127.076Z" fill="#F46F2E"/>
<path d="M193.396 118.446C193.377 118.08 193.348 117.703 193.18 117.379C193.012 117.054 192.668 116.792 192.305 116.832C191.83 116.884 191.554 117.385 191.381 117.832C190.836 119.247 190.521 120.752 190.453 122.268C190.031 120.179 188.991 118.218 187.498 116.697C187.015 116.205 186.165 115.766 185.712 116.287C185.437 116.603 185.517 117.083 185.624 117.487C186.038 119.062 186.63 120.59 187.383 122.033C186.309 120.978 184.785 120.399 183.281 120.474C182.876 120.495 182.392 120.627 182.283 121.018C182.182 121.38 182.469 121.727 182.746 121.98C183.844 122.983 185.152 123.753 186.56 124.229C185.906 124.017 185.211 123.803 184.542 123.962C183.873 124.122 183.281 124.813 183.489 125.468C183.651 125.981 184.198 126.251 184.702 126.44C186.248 127.019 191.388 128.549 192.705 127.069C193.328 126.369 193.242 124.029 193.32 123.121C193.455 121.567 193.481 120.003 193.396 118.446Z" fill="#2EAE7D"/>
<path d="M188.625 130.91C188.97 132.297 189.752 133.528 190.631 134.672C190.759 134.84 190.9 135.012 191.036 135.175C191.128 135.3 191.225 135.413 191.319 135.533C193.592 138.313 196.083 141.127 198.778 143.677C198.932 143.825 199.091 143.975 199.253 144.119C200.895 145.65 202.62 147.077 204.413 148.342C206.977 150.15 207.948 148.88 207.038 146.274C206.715 145.347 206.369 144.427 205.996 143.512C205.923 143.313 205.838 143.11 205.759 142.909C204.922 140.87 203.983 138.862 202.949 136.91C202.846 136.723 202.743 136.535 202.641 136.347C202.102 135.354 201.538 134.375 200.949 133.417C200.839 133.233 200.727 133.056 200.609 132.877C199.938 131.802 199.234 130.752 198.504 129.722C197.958 128.953 197.372 128.182 196.713 127.51C196.545 127.338 196.376 127.173 196.202 127.025C195.81 126.672 195.388 126.358 194.932 126.095C193.443 125.252 191.466 125.056 190.074 126.052C188.609 127.095 188.195 129.167 188.625 130.91Z" fill="#F68640"/>
<path d="M204.032 144.673C204.683 144.291 205.343 143.903 205.996 143.513C205.923 143.313 205.838 143.11 205.759 142.909C205.076 143.311 204.393 143.712 203.709 144.113C203.356 144.331 203.674 144.883 204.032 144.673Z" fill="#F46F2E"/>
<path d="M198.778 143.677C198.932 143.825 199.091 143.975 199.253 144.119C200.54 143.188 201.872 142.315 203.24 141.507C203.597 141.297 203.275 140.737 202.918 140.946C201.494 141.787 200.111 142.699 198.778 143.677Z" fill="#F46F2E"/>
<path d="M198.996 139.664C200.232 138.633 201.556 137.712 202.949 136.91C202.846 136.722 202.743 136.534 202.641 136.347C201.194 137.174 199.825 138.136 198.546 139.209C198.227 139.475 198.677 139.931 198.996 139.664Z" fill="#F46F2E"/>
<path d="M195.356 136.905C197.088 135.542 198.967 134.372 200.949 133.417C200.838 133.233 200.727 133.056 200.608 132.877C198.586 133.855 196.673 135.05 194.898 136.449C194.576 136.7 195.033 137.158 195.356 136.905Z" fill="#F46F2E"/>
<path d="M190.631 134.672C190.759 134.84 190.9 135.012 191.036 135.175C192.722 133.733 194.633 132.572 196.705 131.753C197.08 131.601 196.922 130.979 196.532 131.133C194.385 131.984 192.391 133.183 190.631 134.672Z" fill="#F46F2E"/>
<path d="M191.491 130.167C191.629 130.298 191.809 130.274 191.95 130.171C193.399 129.065 195.006 128.16 196.713 127.51C196.545 127.338 196.376 127.173 196.203 127.025C194.523 127.703 192.942 128.608 191.495 129.708C191.358 129.818 191.38 130.058 191.491 130.167Z" fill="#F46F2E"/>
<path d="M179.406 146.936C179.393 147.045 179.38 147.148 179.361 147.258C179.206 148.205 178.961 149.153 178.626 150.069C177.961 151.887 176.949 153.576 175.59 154.897C175.235 155.245 174.861 155.568 174.454 155.852C174.132 156.097 173.791 156.31 173.429 156.509C171.502 157.567 169.329 157.876 167.169 157.612C166.679 157.554 166.19 157.464 165.7 157.341C163.946 156.915 162.245 156.129 160.749 155.072C160.039 154.569 159.375 154.014 158.776 153.401C158.673 153.299 158.576 153.196 158.486 153.092C154.908 149.302 153.167 144.125 151.975 139.052C150.254 131.709 147.881 121.716 150.788 114.354C151.523 112.497 152.903 111.027 154.605 109.989C155.269 109.583 155.984 109.241 156.726 108.971C157.1 108.829 157.48 108.706 157.867 108.61C158.318 108.487 158.776 108.384 159.24 108.313C159.653 108.248 160.065 108.204 160.478 108.178C160.903 108.152 161.335 108.146 161.761 108.164C162.366 108.184 162.966 108.248 163.553 108.358C164.03 108.449 164.495 108.565 164.939 108.719C165.487 108.893 166.003 109.112 166.499 109.377C171.076 111.846 173.339 117.074 174.951 122.012C176.453 126.59 177.678 131.251 178.639 135.97C179.374 139.58 179.948 143.3 179.406 146.936Z" fill="#20795A"/>
<path d="M160.749 155.072C160.039 154.569 159.375 154.014 158.776 153.401C158.673 153.299 158.576 153.196 158.486 153.092C158.395 152.873 158.305 152.654 158.222 152.428C155.52 145.408 153.973 137.846 152.703 130.445C151.536 123.637 151.227 116.191 154.605 109.99C155.269 109.583 155.984 109.241 156.726 108.971L156.668 109.068C154.379 112.465 153.354 116.494 153.18 120.556C153.012 124.553 153.619 128.524 154.379 132.437C155.075 136.047 155.823 139.651 156.719 143.216C157.738 147.265 159.002 151.287 160.749 155.072Z" fill="#51C292"/>
<path d="M167.169 157.612C166.68 157.554 166.19 157.464 165.7 157.341C164.991 155.413 164.275 153.492 163.566 151.565C162.2 147.858 160.504 144.125 159.698 140.244C158.924 136.499 159.041 132.637 158.28 128.885C157.525 125.184 156.565 121.542 156.629 117.739C156.681 114.657 157.223 111.621 157.867 108.61C158.318 108.487 158.776 108.384 159.24 108.313C158.441 112.032 157.744 115.798 157.957 119.614C158.163 123.353 159.324 126.944 159.904 130.626C160.497 134.371 160.349 138.188 161.439 141.85C162.534 145.531 164.037 149.121 165.365 152.725C165.97 154.356 166.57 155.981 167.169 157.612Z" fill="#51C292"/>
<path d="M175.59 154.897C175.234 155.245 174.861 155.568 174.454 155.852C174.016 153.125 173.378 150.43 172.611 147.774C170.612 140.863 167.763 134.261 165.236 127.543C162.889 121.303 160.884 114.863 160.478 108.178C160.903 108.152 161.335 108.146 161.761 108.165C161.986 111.813 162.702 115.411 163.701 118.925C165.648 125.81 168.581 132.366 171.057 139.064C172.965 144.222 174.642 149.489 175.59 154.897Z" fill="#51C292"/>
<path d="M179.406 146.936C179.393 147.045 179.381 147.148 179.361 147.258C179.206 148.206 178.961 149.153 178.626 150.069C178.459 148.896 178.258 147.729 178.027 146.562C176.621 139.412 174.171 132.573 170.896 126.074C168.021 120.369 164.759 114.689 163.553 108.358C164.03 108.449 164.495 108.565 164.939 108.72C165.622 111.897 166.821 114.94 168.214 117.88C169.736 121.104 171.464 124.224 173.004 127.441C174.552 130.664 175.892 133.985 176.988 137.388C177.994 140.515 178.8 143.706 179.406 146.936Z" fill="#51C292"/>
<path d="M183.749 161.271C183.749 164.597 175.109 165.855 169.205 165.726C163.531 165.848 155.357 164.694 154.712 161.665C154.673 161.536 154.66 161.407 154.66 161.271C154.66 158.461 157.884 142.602 159.399 135.304C159.87 133.067 160.172 131.629 160.172 131.629H178.23C178.23 131.629 178.533 133.067 179.004 135.304C180.518 142.602 183.749 158.461 183.749 161.271Z" fill="#FAB663"/>
<path d="M179.004 135.304C178.533 133.067 178.23 131.629 178.23 131.629H175.02H160.172C160.172 131.629 159.87 133.067 159.399 135.304H175.853C177.665 143.404 180.289 155.882 179.771 157.822C179.042 160.601 166.406 165.462 154.712 161.665C155.357 164.694 163.531 165.848 169.205 165.726C175.109 165.855 183.749 164.597 183.749 161.271C183.749 158.461 180.518 142.602 179.004 135.304Z" fill="#F7923D"/>
<path d="M179.772 133.121H158.632V128.296H179.772V133.121Z" fill="#FAB663"/>
<path d="M175.631 150.93H159.546V143.73H175.631V150.93Z" fill="white"/>
<path d="M204.418 161.586C204.418 164.912 195.779 166.169 189.874 166.041C184.201 166.163 176.027 165.009 175.382 161.979C175.343 161.85 175.33 161.722 175.33 161.586C175.33 158.775 178.553 142.916 180.068 135.618C180.539 133.382 180.842 131.944 180.842 131.944H198.9C198.9 131.944 199.203 133.382 199.673 135.618C201.188 142.916 204.418 158.775 204.418 161.586Z" fill="#F04242"/>
<path d="M199.673 135.618C199.203 133.382 198.9 131.944 198.9 131.944H195.689H180.842C180.842 131.944 180.539 133.382 180.068 135.618H196.522C198.334 143.719 200.959 156.197 200.441 158.137C199.712 160.916 187.076 165.776 175.382 161.979C176.027 165.009 184.201 166.163 189.874 166.041C195.779 166.169 204.418 164.912 204.418 161.586C204.418 158.775 201.188 142.916 199.673 135.618Z" fill="#EF2D2E"/>
<path d="M200.443 133.437H179.302V128.611H200.443V133.437Z" fill="#F04242"/>
<path d="M196.301 151.245H180.216V144.045H196.301V151.245Z" fill="white"/>
<path d="M138.178 120.617L124.65 121.444C124.65 121.444 118.61 91.2462 122.273 82.5896C122.823 81.2812 123.597 80.4679 124.65 80.3208C128.785 79.7476 132.254 90.4954 134.639 101.034C136.884 110.922 138.178 120.617 138.178 120.617Z" fill="#FAB663"/>
<path d="M130.575 92.4759C128.325 90.8981 125.712 89.8409 122.998 89.4082C125.135 91.5071 127.584 92.6223 130.575 92.4759Z" fill="#F7923D"/>
<path d="M131.384 100.171C129.134 98.5931 126.521 97.5359 123.807 97.1032C125.944 99.2021 128.393 100.317 131.384 100.171Z" fill="#F7923D"/>
<path d="M132.262 108.214C130.011 106.636 127.399 105.579 124.684 105.146C126.822 107.245 129.27 108.36 132.262 108.214Z" fill="#F7923D"/>
<path d="M134.639 101.034C134.29 99.8722 133.965 98.7031 133.633 97.5417C132.634 94.1038 131.503 90.6268 129.42 87.7152C127.67 85.2838 125.146 83.2786 122.273 82.5896C122.823 81.2812 123.597 80.4679 124.65 80.3208C128.785 79.7476 132.254 90.4954 134.639 101.034Z" fill="#F7923D"/>
<path d="M144.363 163.255L138.615 111.643L120.731 113.144L126.181 163.255H144.363Z" fill="#C07E53"/>
<path d="M158.166 143.275C158.03 143.773 157.379 144.153 156.61 144.437C156.616 140.235 156.619 136.096 156.614 132.927C157.575 133.076 158.414 133.257 158.49 133.447C158.676 133.911 158.536 141.917 158.166 143.275ZM160.758 130.933C160.304 130.22 158.354 129.916 156.603 129.788C156.594 128.275 156.581 127.336 156.562 127.231C156.439 126.552 149.033 121.8 149.033 121.8V117.11H139.037V122.294C139.037 122.294 132.125 127.231 131.632 128.464C131.138 129.699 131.632 163.268 131.632 163.268H156.562C156.562 163.268 156.588 155.817 156.604 147.692C158.503 147.254 160.624 146.697 160.758 146.36C161.005 145.743 161.622 132.29 160.758 130.933Z" fill="#D1F0FC"/>
<path d="M150.484 119.24H137.618V113.408H150.484V119.24Z" fill="#363950"/>
<path d="M198.291 209.604H111.661C111.175 209.604 110.716 209.385 110.41 209.009C110.104 208.632 109.984 208.137 110.084 207.663L119.275 163.773C119.457 162.902 120.311 162.345 121.183 162.526C122.054 162.708 122.612 163.563 122.43 164.433L113.645 206.381H198.291C199.18 206.381 199.902 207.102 199.902 207.993C199.902 208.883 199.18 209.604 198.291 209.604Z" fill="#BCBEBC"/>
<path d="M113.038 107.349C112.293 107.349 111.625 106.83 111.464 106.073L109.743 97.975L93.1552 95.4974C92.2749 95.366 91.6678 94.5455 91.7993 93.6652C91.9307 92.7849 92.7511 92.1799 93.6314 92.3093L111.325 94.9522C111.99 95.0517 112.523 95.5534 112.663 96.2111L114.616 105.403C114.802 106.273 114.245 107.129 113.375 107.313C113.262 107.338 113.149 107.349 113.038 107.349Z" fill="#363950"/>
<path d="M122.268 162.523L202.457 164.299L209.974 121.343L114.921 107.638L122.268 162.523ZM203.806 167.553L203.77 167.553L120.817 165.715C120.023 165.697 119.36 165.104 119.255 164.317L111.442 105.951C111.375 105.451 111.547 104.947 111.906 104.592C112.265 104.237 112.77 104.069 113.27 104.142L212.078 118.389C212.51 118.452 212.897 118.686 213.153 119.038C213.409 119.391 213.511 119.834 213.436 120.262L205.393 166.22C205.258 166.992 204.587 167.553 203.806 167.553Z" fill="#BCBEBC"/>
<path d="M196.392 149.314L185.996 149.18L187.211 130.834L198.79 131.382L196.392 149.314ZM174.362 149.031L174.909 130.251L185.923 130.773L184.704 149.164L174.362 149.031ZM164.392 148.903V129.754L173.621 130.191L173.072 149.014L164.392 148.903ZM153.069 148.758L152.892 129.21L163.102 129.693V148.887L153.069 148.758ZM141.581 148.61L140.836 128.639L151.603 129.149L151.779 148.741L141.581 148.61ZM130.965 148.474L129.073 128.082L139.544 128.578L140.29 148.594L130.965 148.474ZM209.905 130.616L200.254 130.16L201.809 118.53C201.856 118.178 201.608 117.853 201.255 117.806C200.902 117.759 200.578 118.007 200.531 118.359L198.962 130.099L187.296 129.546L188.159 116.519C188.183 116.163 187.914 115.856 187.559 115.833C187.204 115.807 186.896 116.078 186.872 116.433L186.008 129.486L174.946 128.963L175.381 114.029C175.393 113.673 175.112 113.376 174.756 113.365C174.407 113.343 174.103 113.635 174.093 113.991L173.659 128.901L164.392 128.463V113.049C164.392 112.693 164.103 112.404 163.747 112.404C163.391 112.404 163.102 112.693 163.102 113.049V128.402L152.881 127.918L152.732 111.362C152.729 111.008 152.44 110.723 152.087 110.723H152.081C151.725 110.726 151.439 111.018 151.442 111.373L151.591 127.857L140.788 127.346L140.123 109.526C140.11 109.17 139.806 108.887 139.455 108.906C139.099 108.919 138.821 109.218 138.834 109.574L139.495 127.285L128.953 126.786L127.175 107.624C127.142 107.269 126.826 107.01 126.474 107.042C126.119 107.074 125.858 107.388 125.891 107.743L127.652 126.724L115.891 126.168C115.533 126.159 115.233 126.426 115.217 126.781C115.2 127.137 115.475 127.439 115.83 127.456L127.772 128.021L129.668 148.457L118.834 148.318H118.826C118.474 148.318 118.186 148.601 118.181 148.954C118.176 149.31 118.461 149.603 118.817 149.607L129.788 149.748L131.125 164.163C131.157 164.497 131.437 164.748 131.767 164.748L131.827 164.745C132.182 164.713 132.442 164.398 132.409 164.044L131.085 149.765L140.338 149.883L140.886 164.586C140.899 164.933 141.186 165.206 141.531 165.206L141.555 165.206C141.911 165.192 142.188 164.893 142.175 164.538L141.629 149.9L151.791 150.031L151.918 164.109C151.922 164.463 152.21 164.748 152.563 164.748H152.569C152.925 164.745 153.211 164.454 153.208 164.098L153.081 150.047L163.102 150.176V165.264C163.102 165.62 163.391 165.909 163.747 165.909C164.103 165.909 164.392 165.62 164.392 165.264V150.193L173.035 150.304L172.599 165.245C172.588 165.601 172.869 165.898 173.225 165.908L173.243 165.909C173.591 165.909 173.878 165.633 173.888 165.283L174.324 150.32L184.62 150.452L183.624 165.466C183.601 165.821 183.87 166.128 184.225 166.152L184.268 166.153C184.605 166.153 184.889 165.892 184.911 165.551L185.911 150.469L196.22 150.602L194.207 165.657C194.16 166.011 194.407 166.335 194.76 166.382L194.846 166.387C195.165 166.387 195.441 166.152 195.485 165.828L197.518 150.618L206.571 150.734H206.58C206.932 150.734 207.22 150.451 207.225 150.098C207.229 149.742 206.944 149.449 206.588 149.444L197.69 149.331L200.082 131.443L209.844 131.905L209.875 131.905C210.217 131.905 210.502 131.637 210.519 131.291C210.536 130.935 210.261 130.633 209.905 130.616Z" fill="#BCBEBC"/>
<path d="M133.265 225.137C133.265 229.691 129.573 233.384 125.018 233.384C120.463 233.384 116.771 229.691 116.771 225.137C116.771 220.581 120.463 216.89 125.018 216.89C129.573 216.89 133.265 220.581 133.265 225.137Z" fill="#363950"/>
<path d="M123.176 208.793L124.881 219.955L122.012 226.001L124.881 227.939L133.252 219.491L133.795 208.793H123.176Z" fill="#DCDDDA"/>
<path d="M125.966 225.304C125.966 225.946 125.445 226.466 124.804 226.466C124.161 226.466 123.64 225.946 123.64 225.304C123.64 224.662 124.161 224.142 124.804 224.142C125.445 224.142 125.966 224.662 125.966 225.304Z" fill="#363950"/>
<path d="M137.371 211.051H119.596V205.417H137.371V211.051Z" fill="#363950"/>
<path d="M187.418 225.137C187.418 229.691 183.726 233.384 179.172 233.384C174.617 233.384 170.924 229.691 170.924 225.137C170.924 220.581 174.617 216.89 179.172 216.89C183.726 216.89 187.418 220.581 187.418 225.137Z" fill="#363950"/>
<path d="M176.919 208.793L178.625 219.955L175.756 226.001L178.625 227.939L186.997 219.491L187.539 208.793H176.919Z" fill="#DCDDDA"/>
<path d="M179.71 225.304C179.71 225.946 179.19 226.466 178.547 226.466C177.905 226.466 177.384 225.946 177.384 225.304C177.384 224.662 177.905 224.142 178.547 224.142C179.19 224.142 179.71 224.662 179.71 225.304Z" fill="#363950"/>
<path d="M191.114 211.051H173.34V205.417H191.114V211.051Z" fill="#363950"/>
<path d="M59.9209 41.2337C59.9209 41.2337 71.6784 44.9833 72.8268 46.5936C73.9758 48.2039 82.484 76.3527 82.484 76.3527L65.4376 79.9812L59.9209 41.2337Z" fill="#DCDDDA"/>
<path d="M83.6026 73.9213L85.0672 79.0886L69.7579 82.0775L69.2654 77.5017L83.6026 73.9213Z" fill="white"/>
<path d="M37.1523 230.447C37.408 229.967 37.581 229.316 37.2082 228.665C36.1191 226.767 31.8132 220.206 31.1496 217.767C30.6343 215.873 31.1437 212.937 31.3975 211.719L19.8482 204.178C17.0557 206.54 12.4954 211.687 11.5461 212.768L37.1523 230.447Z" fill="#DD3464"/>
<path d="M35.3443 232.969L9.73755 215.29L11.5463 212.768L37.1524 230.447L35.3443 232.969Z" fill="white"/>
<path d="M28.4864 216.985L28.3719 217.036C28.0882 217.171 27.7642 217.455 27.9659 217.793C28.0687 217.965 28.2593 218.067 28.4448 218.149C29.085 218.431 29.7746 218.551 30.4689 218.618C31.2151 218.689 32.0141 218.761 32.7305 218.489C33.4715 218.207 33.3329 217.371 32.6348 217.073C31.4279 216.56 29.718 216.456 28.4864 216.985Z" fill="white"/>
<path d="M29.4414 219.664L29.3262 219.715C29.0426 219.849 28.7185 220.134 28.9202 220.471C29.023 220.644 29.2137 220.746 29.3998 220.827C30.04 221.109 30.729 221.23 31.4239 221.297C32.1701 221.369 32.9691 221.44 33.6854 221.168C34.4259 220.886 34.2873 220.05 33.5898 219.753C32.3829 219.238 30.6724 219.135 29.4414 219.664Z" fill="white"/>
<path d="M31.1731 222.191L31.0586 222.243C30.7742 222.377 30.4502 222.661 30.6519 222.999C30.7547 223.171 30.9454 223.273 31.1314 223.355C31.7717 223.637 32.4613 223.757 33.1556 223.824C33.9018 223.896 34.7008 223.967 35.4171 223.695C36.1575 223.413 36.0196 222.577 35.3215 222.28C34.1146 221.766 32.4041 221.662 31.1731 222.191Z" fill="white"/>
<path d="M63.0157 170.752L47.4911 155.751L16.6155 202.849L33.226 214.362L63.0157 170.752Z" fill="#282A3E"/>
<path d="M49.4629 117.235C50.5449 128.937 51.9685 147.919 50.2463 152.038C50.1923 152.168 49.7798 152.856 49.1038 153.951L66.5048 169.357C66.5048 169.357 72.7313 159.162 73.4828 155.315C75.1679 146.682 71.6552 123.839 70.769 117.235H49.4629Z" fill="#282A3E"/>
<path d="M71.7936 166.042L55.945 117.235H29.5034C31.5965 122.419 48.2604 163.7 52.522 173.941L58.1324 220.341L75.9668 216.637L75.5269 211.327L71.7936 166.042Z" fill="#363950"/>
<path d="M60.8057 165.679C61.3366 167.62 62.6099 169.348 64.3061 170.43C65.4304 171.148 66.986 171.551 68.0439 170.739C69.016 169.993 69.1214 168.58 69.0205 167.359C68.891 165.802 68.5625 164.262 68.0452 162.787C67.5761 161.452 66.8878 160.096 65.6704 159.375C61.3503 156.812 60.0223 162.814 60.8057 165.679Z" fill="#52546E"/>
<path d="M91.3075 226.551C91.1683 226.027 90.8508 225.431 90.1299 225.195C88.0232 224.505 80.3438 222.481 78.1824 221.11C76.5044 220.047 74.8733 217.535 74.2272 216.466L60.5094 218.488C60.0559 222.079 60.199 228.897 60.2348 230.323L91.3075 226.551Z" fill="#DD3464"/>
<path d="M91.6932 229.611L60.6204 233.384L60.2346 230.323L91.3074 226.551L91.6932 229.611Z" fill="white"/>
<path d="M75.6736 222.285L75.6241 222.399C75.5057 222.686 75.4601 223.11 75.8408 223.228C76.0347 223.287 76.2461 223.237 76.4393 223.175C77.1062 222.962 77.7003 222.598 78.2605 222.189C78.8629 221.75 79.5038 221.277 79.848 220.603C80.2039 219.906 79.5292 219.378 78.8089 219.618C77.5623 220.032 76.2246 221.082 75.6736 222.285Z" fill="white"/>
<path d="M78.2149 223.641L78.1648 223.755C78.0471 224.042 78.0009 224.466 78.3815 224.584C78.576 224.643 78.7862 224.593 78.9801 224.531C79.647 224.318 80.241 223.954 80.8012 223.546C81.403 223.106 82.0439 222.633 82.3887 221.959C82.7446 221.263 82.0699 220.734 81.349 220.974C80.1031 221.388 78.7654 222.438 78.2149 223.641Z" fill="white"/>
<path d="M81.2265 224.373L81.177 224.487C81.0593 224.774 81.0131 225.198 81.3937 225.315C81.5882 225.375 81.7984 225.325 81.9923 225.263C82.6592 225.05 83.2532 224.686 83.8134 224.278C84.4152 223.838 85.0561 223.365 85.4003 222.691C85.7568 221.994 85.0821 221.466 84.3612 221.706C83.1153 222.12 81.7776 223.17 81.2265 224.373Z" fill="white"/>
<path d="M61.5163 212.771C61.5163 212.771 56.9111 175.114 55.8643 171.102C54.9293 167.525 38.4782 126.182 34.9166 117.235H29.5034C31.5965 122.419 48.2604 163.7 52.522 173.941L58.1324 220.341L75.9668 216.637L75.5269 211.327L61.5163 212.771Z" fill="#282A3E"/>
<path d="M44.1975 39.8121C44.1975 39.8121 35.602 41.8485 34.2233 42.939C32.8446 44.0294 28.84 110.016 30.5362 117.235C30.5362 117.235 59.9036 118.369 71.2675 116.625C71.2675 116.625 70.8739 53.1447 69.3807 49.1232C67.8869 45.1017 59.9212 41.2337 59.9212 41.2337L49.6758 44.7575L44.1975 39.8121Z" fill="#DCDDDA"/>
<path d="M46.9657 38.8485L44.1973 39.812C44.1973 39.812 47.0542 49.7166 53.0497 52.1681L58.6237 47.5942L64.0623 50.8467C64.0623 50.8467 60.4955 42.0762 59.921 41.2337L57.0719 40.7001L46.9657 38.8485Z" fill="white"/>
<path d="M47.441 41.9396C47.6993 42.1218 58.6234 47.5942 58.6234 47.5942C58.6234 47.5942 57.6318 43.2226 57.125 40.9435C56.9708 40.2376 56.8595 39.732 56.84 39.6201C56.68 38.7014 56.7711 34.5862 56.7711 34.5862L46.2283 31.823C46.2283 31.823 46.4254 33.8633 46.6629 36.1119C46.9498 38.8244 47.2986 41.8394 47.441 41.9396Z" fill="#F68672"/>
<path d="M46.6629 36.1119C49.7182 37.609 56.4444 40.8765 57.0703 40.9416L57.125 40.9435C56.9708 40.2376 56.8595 39.7321 56.84 39.6201C56.68 38.7015 56.7711 34.5862 56.7711 34.5862L46.2283 31.823C46.2283 31.823 46.4254 33.8634 46.6629 36.1119Z" fill="#F36269"/>
<path d="M44.952 32.3968C44.952 32.3968 45.319 33.0592 46.578 33.8334H46.5799C46.8369 33.9928 47.1336 34.1568 47.4713 34.3207C48.7595 34.9427 60.2848 37.6682 61.8983 37.1601C63.5125 36.6519 64.0799 30.7026 64.0617 30.091C63.9543 26.3349 63.441 14.7596 63.441 14.7596C57.2151 3.13284 43.7894 12.0562 42.3482 13.5559C40.9071 15.0563 44.952 32.3968 44.952 32.3968Z" fill="#F68672"/>
<path d="M46.5798 33.8334C46.8368 33.9928 47.1335 34.1568 47.4712 34.3207C48.7594 34.9427 60.2847 37.6682 61.8982 37.1601C63.5124 36.6519 64.0798 30.7026 64.0616 30.091C63.4676 32.7638 62.9061 36.4145 61.7167 36.5081C59.9255 36.6506 48.0015 34.2914 46.5798 33.8334Z" fill="#F9AA7F"/>
<path d="M62.9261 19.3075C62.9261 19.3075 61.2892 16.3855 60.0419 17.2925C58.7947 18.1995 59.2787 18.3758 59.2787 18.3758L62.9261 19.3075Z" fill="#353638"/>
<path d="M46.833 18.1377C46.833 18.1377 50.5214 13.8682 52.0393 15.3784C52.9255 16.2593 52.3126 16.8624 52.3126 16.8624L46.833 18.1377Z" fill="#353638"/>
<path d="M49.7198 23.3915C49.9183 24.5307 50.6548 25.3544 51.3646 25.2308C52.0745 25.1072 52.4889 24.0831 52.2898 22.9432C52.0914 21.8033 51.3549 20.9803 50.645 21.1039C49.9352 21.2275 49.5207 22.2516 49.7198 23.3915Z" fill="#121414"/>
<path d="M48.2913 22.4533C48.2913 22.4533 48.8671 23.0837 49.7057 23.2639C50.5444 23.4442 51.3278 23.1065 51.3278 23.1065C51.3278 23.1065 50.7526 22.4767 49.9139 22.2965C49.0753 22.1156 48.2913 22.4533 48.2913 22.4533Z" fill="white"/>
<path d="M62.0048 22.0466C62.1544 22.9061 61.8421 23.6778 61.3073 23.7708C60.7725 23.8645 60.2175 23.2438 60.0672 22.3843C59.9176 21.5255 60.2299 20.7532 60.7653 20.6601C61.3002 20.5671 61.8552 21.1878 62.0048 22.0466Z" fill="#121414"/>
<path d="M62.7051 21.1468C62.7051 21.1468 62.4449 21.6654 61.927 21.9874C61.4091 22.3108 60.8293 22.3153 60.8293 22.3153C60.8293 22.3153 61.0896 21.7974 61.6075 21.4747C62.1254 21.152 62.7051 21.1468 62.7051 21.1468Z" fill="white"/>
<path d="M53.8911 32.5921C54.9503 32.9115 56.1468 32.7391 57.072 32.1334C56.8131 32.6994 56.3791 33.0826 55.7617 33.1672C55.1442 33.2505 54.3843 32.9727 53.8911 32.5921Z" fill="#F14568"/>
<path d="M61.8796 26.9764C62.1274 27.3987 63.1119 27.2809 64.0787 26.7136C65.0455 26.1456 65.6285 25.3434 65.3806 24.9211C65.1334 24.4988 64.1483 24.6166 63.1815 25.1846C62.2146 25.752 61.6317 26.5542 61.8796 26.9764Z" fill="#F36269"/>
<path d="M48.4997 27.1365C48.4418 27.849 49.717 28.5328 51.3475 28.6655C52.9773 28.7976 54.3456 28.3272 54.4035 27.6154C54.4614 26.9036 53.1868 26.2191 51.5564 26.0871C49.9259 25.955 48.5576 26.4247 48.4997 27.1365Z" fill="#F36269"/>
<path d="M51.0679 29.9296C51.0679 29.9296 51.1511 30.0103 51.2962 30.1502C51.4433 30.2953 51.6762 30.4827 51.9866 30.687C52.6007 31.0975 53.5806 31.5217 54.7315 31.6096C55.8825 31.6916 56.9138 31.4163 57.582 31.1001C57.9183 30.9433 58.1766 30.7924 58.3432 30.6707C58.5071 30.5536 58.6015 30.4859 58.6015 30.4859C58.6015 30.4859 58.4928 30.5263 58.3042 30.5959C58.1174 30.672 57.837 30.7586 57.4922 30.847C56.8025 31.0266 55.8331 31.1489 54.7706 31.0735C53.7094 30.9928 52.768 30.7286 52.1115 30.4495C51.7842 30.3116 51.5194 30.1847 51.3457 30.0826C51.1694 29.9856 51.0679 29.9296 51.0679 29.9296Z" fill="#F14568"/>
<path d="M56.3974 26.5945L55.8613 25.2464C55.8613 25.2464 57.8529 25.9914 59.0019 25.5314V26.834H58.1594L56.3974 26.5945Z" fill="#F36269"/>
<path d="M59.3107 27.119C58.3387 27.2764 57.2749 27.0409 56.3972 26.5945C57.1624 26.4996 57.9373 26.4852 58.705 26.551C58.6289 24.2907 58.1929 21.9107 56.6985 20.2145C57.7199 20.9777 58.4922 22.0369 58.8917 23.2477C59.2912 24.4585 59.368 25.845 59.3107 27.119Z" fill="#F14568"/>
<path d="M46.6057 32.5582C44.3669 32.769 42.5302 31.7391 41.4781 30.7924C41.2413 30.579 41.0448 30.3688 40.8919 30.1795C40.0617 29.145 39.1885 25.21 40.6518 24.005C41.6778 23.1612 42.6694 23.953 43.171 24.5041V24.506C43.3851 24.7396 43.51 24.9302 43.51 24.9302L46.6057 32.5582Z" fill="#F9AA7F"/>
<path d="M46.6055 32.5582C44.3667 32.769 42.53 31.7391 41.4779 30.7924C41.3842 30.6935 41.3003 30.5979 41.2274 30.5061C40.3972 29.4723 39.5241 25.5373 40.988 24.3329C41.8182 23.6485 42.6263 24.0382 43.1709 24.5041V24.506C43.3849 24.7396 43.5098 24.9302 43.5098 24.9302L46.6055 32.5582Z" fill="#F68672"/>
<path d="M40.6891 27.2451C40.6631 27.577 40.7724 27.8977 40.9312 28.1931C41.6072 29.4469 43.114 30.2309 44.5513 30.9524C44.0548 30.374 43.7868 29.6694 43.7412 28.9459C43.7256 28.6941 43.736 28.4384 43.695 28.1905C43.5304 27.1905 40.8433 25.2854 40.6891 27.2451Z" fill="#F36269"/>
<path d="M45.2568 31.2198L45.1774 31.1912C45.126 31.1717 45.0453 31.1476 44.951 31.1047C44.7604 31.0208 44.4929 30.8789 44.2236 30.6473C43.9555 30.4157 43.6927 30.0904 43.5229 29.6798C43.3628 29.2699 43.2945 28.7709 43.4396 28.2536C43.4532 28.1886 43.4773 28.1255 43.502 28.0623L43.5196 28.0155L43.5222 28.0096L43.5216 28.0116L43.5229 28.0103H43.5235L43.5183 28.0038L43.491 27.9693L43.4344 27.901L43.3205 27.7683C43.1657 27.5945 43.0037 27.4338 42.841 27.2868C42.6777 27.1398 42.5118 27.0077 42.3504 26.888C42.1871 26.7702 42.0316 26.6596 41.882 26.5841C41.733 26.5073 41.5775 26.4677 41.4382 26.4735C41.2997 26.482 41.1767 26.5353 41.098 26.5932C41.0179 26.6518 40.9795 26.7162 40.9665 26.7617L40.9555 26.8327L40.947 26.7604C40.9477 26.7129 40.9711 26.6368 41.0472 26.5568C41.1227 26.4787 41.2483 26.3961 41.4272 26.3603C41.6061 26.3271 41.8104 26.3538 41.9997 26.4208C42.1917 26.4885 42.3693 26.5841 42.5573 26.6895C42.7447 26.7975 42.9373 26.9211 43.1266 27.0636C43.3153 27.2061 43.502 27.3668 43.6771 27.5458L43.8059 27.683L43.869 27.7546L43.9536 27.8555L44.0121 27.927L43.9822 28.0135L43.9367 28.1378L43.884 28.3031C43.7577 28.752 43.789 29.1938 43.8944 29.5764C44.0082 29.957 44.1995 30.281 44.4064 30.5269C44.6146 30.7742 44.8332 30.9459 44.9939 31.0572C45.074 31.1131 45.1436 31.1489 45.1878 31.1776L45.2568 31.2198Z" fill="#D03B58"/>
<path d="M37.6169 21.7734L38.0249 22.1377L40.401 24.2692C42.604 23.562 44.9944 27.3759 44.9944 27.3759L45.1616 16.4942C47.906 16.0986 56.5053 11.8942 56.5053 11.8942L63.5744 17.7512C63.5744 17.7512 64.1112 16.936 64.7085 15.7206C65.7996 13.487 67.0768 9.90723 65.5166 7.60856C63.1105 4.05743 53.7786 2.44711 53.7786 2.44711L50.3198 4.65795C50.3198 4.65795 41.9195 6.19084 39.8024 8.19152C37.6853 10.1922 37.6169 21.7734 37.6169 21.7734Z" fill="#121414"/>
<path d="M37.6169 21.7734L38.0249 22.1377C39.4218 21.6621 40.7068 20.8417 41.7322 19.7727C42.2468 20.8417 42.7634 21.9165 43.2781 22.9848C44.0107 20.1292 44.1245 17.1337 43.6437 14.2319C48.7206 14.6301 53.9178 11.8727 56.4331 7.43742C59.9355 9.29171 62.8542 12.226 64.7085 15.7206C65.134 14.8585 65.5758 13.7941 65.8809 12.6841C66.3617 10.9124 66.4743 9.01975 65.5166 7.60854C63.1105 4.05741 53.7786 2.4471 53.7786 2.4471L50.3198 4.65793C50.3198 4.65793 41.9195 6.19082 39.8024 8.1915C38.6176 9.31253 38.0704 13.4369 37.8271 16.8488C37.6306 19.5326 37.6169 21.7734 37.6169 21.7734Z" fill="#353638"/>
<path d="M37.8269 16.8488L37.8334 16.8475C39.2615 16.6627 40.1646 15.2593 40.8653 14.0049C41.1497 14.891 41.4418 15.7818 41.7261 16.6679C42.7424 14.7251 43.2109 12.4987 43.0632 10.3041C48.1127 11.6457 53.889 9.59623 56.9599 5.36975C60.8435 6.26046 64.1936 9.08875 65.8807 12.6841C66.3615 10.9125 66.4741 9.01979 65.5164 7.60857C63.1103 4.05744 53.7784 2.44713 53.7784 2.44713L50.3196 4.65796C50.3196 4.65796 41.9194 6.19085 39.8022 8.19153C38.6174 9.31257 38.0702 13.4369 37.8269 16.8488Z" fill="#4A4C4E"/>
<path d="M11.3651 83.8213C11.3651 83.8213 6.54001 118.934 8.37803 122.323C10.2161 125.711 20.9488 128.009 25.9229 128.239C30.8969 128.469 42.16 123.413 42.618 121.115C43.0761 118.817 39.8158 83.8213 39.8158 83.8213H11.3651Z" fill="#F46D3C"/>
<path d="M48.2269 99.9002C47.8079 101.071 40.1025 97.2827 40.1025 97.2827L38.3627 98.9145L41.4343 100.799L44.059 105.347C44.059 105.347 43.4688 106.18 42.6848 107.157C42.5879 107.28 42.4864 107.403 42.3842 107.528C41.9093 108.107 41.3849 108.703 40.8885 109.184L40.7473 109.325C40.4942 109.56 40.2521 109.762 40.0329 109.912C39.7869 110.078 39.5677 110.179 39.3855 110.191L36.6197 107.175C36.6197 107.175 30.9865 107.511 30.2149 107.138C29.9084 106.989 29.1134 105.728 28.2656 104.263C27.8609 103.559 26.3053 100.81 25.9233 100.112L27.9513 97.0094L32.5389 95.9463C33.0763 95.8012 33.7914 95.6223 34.5949 95.4512V95.4486C34.9899 95.3634 35.4062 95.2814 35.8324 95.2046C37.3783 94.9274 39.0595 94.742 40.3816 94.8845C40.9424 94.9424 41.4376 95.0634 41.8286 95.2619C44.53 96.6249 48.6452 98.733 48.2269 99.9002Z" fill="#F68672"/>
<path d="M40.8881 109.184L40.7469 109.325C40.6487 109.185 40.5231 109.001 40.3696 108.78C40.0195 108.281 39.5355 107.613 38.998 106.902C38.4554 106.194 37.9232 105.589 37.4717 105.179C37.3572 105.077 37.2531 104.985 37.1607 104.902C37.0611 104.829 36.9772 104.764 36.905 104.712C36.7651 104.602 36.6831 104.539 36.6831 104.539C36.6831 104.539 36.784 104.558 36.9681 104.602C37.0585 104.624 37.1724 104.652 37.3019 104.689C37.4255 104.737 37.5647 104.792 37.7222 104.859C38.335 105.129 39.1132 105.677 39.7092 106.453C40.2973 107.232 40.6116 108.038 40.769 108.627C40.8263 108.846 40.8634 109.032 40.8881 109.184Z" fill="#D03B58"/>
<path d="M42.6845 107.157C42.5876 107.28 42.4861 107.403 42.3839 107.528L42.3208 107.442C41.9708 106.942 41.4874 106.274 40.9499 105.565C40.4067 104.855 39.8745 104.25 39.4236 103.84C39.3091 103.738 39.2069 103.647 39.1152 103.567C39.0156 103.49 38.9284 103.427 38.8595 103.374C38.7163 103.264 38.637 103.203 38.637 103.203C38.637 103.203 38.7352 103.222 38.9193 103.264C39.0098 103.287 39.1236 103.314 39.2531 103.352C39.3767 103.398 39.5186 103.456 39.6734 103.521C40.2896 103.793 41.0677 104.341 41.6604 105.117C42.2083 105.839 42.5186 106.585 42.6845 107.157Z" fill="#D03B58"/>
<path d="M16.2828 88.8877L21.9003 75.4333H8.60994C5.94952 82.7464 2.80829 92.4629 3.8597 95.0257C5.60274 99.275 28.2654 104.263 28.2654 104.263L29.8679 96.5651L16.2828 88.8877Z" fill="#F68672"/>
<path d="M37.0672 41.7568C37.0672 41.7568 29.7867 43.5349 25.9538 46.6157C22.1209 49.6977 5.92615 76.7886 5.6145 78.7047L21.3408 83.8212L32.706 69.6447L37.0672 41.7568Z" fill="#DCDDDA"/>
<path d="M3.06836 82.7893L4.92655 76.3526L24.1188 81.9585L21.0244 87.2962L3.06836 82.7893Z" fill="white"/>
<path d="M71.4437 69.4788C71.4132 68.8587 71.2752 68.2608 71.2629 67.6388C71.2492 66.9173 71.2381 66.1957 71.2121 65.4735C71.1659 64.182 70.9844 62.8996 70.8601 61.6133C70.4652 57.5319 70.3403 53.2853 68.1691 49.6671C68.1281 49.5995 68.0305 49.6587 68.0644 49.7283C68.9369 51.5188 69.3194 53.6002 69.6044 55.5612C69.9083 57.6536 70.0768 59.8059 70.1184 61.9198C70.1431 63.1566 70.1503 64.3941 70.2258 65.629C70.2635 66.2471 70.2967 66.8659 70.3214 67.4846C70.3461 68.119 70.2407 68.6987 70.1906 69.3259C70.0976 70.4853 70.1132 71.6408 70.1587 72.8016C70.2075 74.0364 70.4008 75.2277 70.2069 76.462C70.1191 77.0261 70.9623 77.2831 71.0813 76.7034C71.3143 75.5719 71.3839 74.3767 71.3728 73.2238C71.3611 71.9753 71.5036 70.7273 71.4437 69.4788Z" fill="#BCBEBC"/>
<path d="M60.3615 54.351C60.3615 55.1018 59.7525 55.7102 59.0017 55.7102C58.2508 55.7102 57.6418 55.1018 57.6418 54.351C57.6418 53.5995 58.2508 52.9912 59.0017 52.9912C59.7525 52.9912 60.3615 53.5995 60.3615 54.351Z" fill="#52546E"/>
<path d="M60.3615 59.789C60.3615 60.5398 59.7525 61.1488 59.0017 61.1488C58.2508 61.1488 57.6418 60.5398 57.6418 59.789C57.6418 59.0381 58.2508 58.4298 59.0017 58.4298C59.7525 58.4298 60.3615 59.0381 60.3615 59.789Z" fill="#52546E"/>
<path d="M60.3615 65.2269C60.3615 65.9784 59.7525 66.5867 59.0017 66.5867C58.2508 66.5867 57.6418 65.9784 57.6418 65.2269C57.6418 64.4767 58.2508 63.8678 59.0017 63.8678C59.7525 63.8678 60.3615 64.4767 60.3615 65.2269Z" fill="#52546E"/>
<path d="M97.4863 102.772C95.8864 100.805 95.6483 97.7004 95.6483 97.7004C96.0576 97.3296 96.5826 97.0043 97.1766 96.7278C97.4232 96.6054 97.6841 96.4961 97.9554 96.3927C98.556 96.165 99.2014 95.9678 99.8657 95.8052C100.155 95.7303 100.449 95.6614 100.743 95.5996C101.526 95.4363 102.308 95.3061 103.043 95.2085C103.358 95.1617 103.663 95.1252 103.955 95.0895C104.75 95.0016 105.444 94.947 105.965 94.9131C106.568 94.8735 106.934 94.863 106.934 94.863C107.812 97.016 107.311 100.661 107.311 100.661C106.598 101.191 105.767 101.595 104.9 101.897C101.494 103.091 97.4863 102.772 97.4863 102.772Z" fill="#F68672"/>
<path d="M104.215 98.7883C104.215 98.7883 104.07 98.4968 103.886 98.0524C103.701 97.6042 103.468 97.014 103.289 96.3504C103.18 95.9477 103.102 95.5592 103.043 95.2085C103.358 95.1617 103.663 95.1253 103.955 95.0895C104.112 95.3738 104.253 95.7024 104.352 96.0628C104.549 96.798 104.518 97.5014 104.431 97.9971C104.345 98.4923 104.215 98.7883 104.215 98.7883Z" fill="#D03B58"/>
<path d="M101.111 99.1487C101.111 99.1487 100.949 98.8813 100.746 98.4708C100.545 98.057 100.294 97.5046 100.107 96.8748C99.9969 96.5013 99.9234 96.1357 99.8655 95.8051C100.155 95.7303 100.448 95.6614 100.743 95.5995C100.906 95.8767 101.059 96.2007 101.165 96.5644C101.366 97.2495 101.355 97.9151 101.29 98.3862C101.222 98.8605 101.111 99.1487 101.111 99.1487Z" fill="#D03B58"/>
<path d="M98.4753 100.322C98.4753 100.322 98.3016 100.046 98.0849 99.61C97.8709 99.1702 97.6073 98.5788 97.418 97.9034C97.3022 97.4903 97.2261 97.0882 97.1766 96.7278C97.4232 96.6054 97.6841 96.4961 97.9554 96.3927C98.1558 96.7303 98.3478 97.1416 98.4772 97.6061C98.6796 98.3277 98.6815 99.0186 98.6282 99.515C98.5748 100.015 98.4753 100.322 98.4753 100.322Z" fill="#D03B58"/>
<path d="M104.9 101.897C105.369 101.27 105.772 100.606 105.982 99.8579C106.176 99.1735 106.195 98.4545 106.192 97.7466C106.189 96.9366 106.219 96.0673 106.074 95.2664C106.057 95.1617 106.013 95.042 105.965 94.9131C106.568 94.8734 106.934 94.863 106.934 94.863C107.812 97.016 107.311 100.661 107.311 100.661C106.598 101.191 105.767 101.595 104.9 101.897Z" fill="#F9AA7F"/>
<path d="M29.5182 83.8212C29.5182 83.8212 30.1935 64.6648 30.1239 62.1371C30.0549 59.6094 24.6931 46.0516 24.6931 46.0516C24.6931 46.0516 26.2995 44.2136 27.4108 44.1368C27.4108 44.1368 33.1949 60.1455 33.042 62.1371C32.8884 64.128 31.8162 83.8212 31.8162 83.8212H29.5182Z" fill="#F46D3C"/>
<path d="M79.1069 32.8165L88.8742 23.8411L92.0356 30.5139L79.1069 32.8165Z" fill="white"/>
<path d="M74.9146 31.8165L73.9341 23.5411L78.4859 24.128L74.9146 31.8165Z" fill="white"/>
<path d="M79.5317 38.6162L88.3783 38.6305L87.9834 42.8225L79.5317 38.6162Z" fill="white"/>
</svg>
